<svg width="190" height="119" viewBox="0 0 190 119" fill="none" xmlns="http://www.w3.org/2000/svg">
<path d="M152.955 98.3028C137.093 128.975 91.8808 124.611 82.191 91.4729L71.4134 54.6152C70.8879 52.8179 68.4358 52.5813 67.5756 54.2448L40.171 107.236C45.5624 96.8107 29.0856 42.306 37.045 20.6972C52.9069 -9.97442 98.1193 -5.61087 107.809 27.5271L118.587 64.3848C119.112 66.182 121.564 66.4187 122.425 64.7552L149.829 11.7642C144.438 22.1893 160.915 76.6938 152.955 98.3028Z" fill="url(#paint0_linear_7_276)"/>
<path d="M187.623 31.2667L152.955 98.3028C160.915 76.6938 144.438 22.1893 149.829 11.7642C155.22 1.3391 168.051 -2.74632 178.488 2.63915C188.925 8.02462 193.014 20.8416 187.623 31.2667Z" fill="url(#paint1_linear_7_276)"/>
<path d="M2.37695 87.7333L37.045 20.6972C29.0856 42.306 45.5624 96.8107 40.171 107.236C34.7797 117.661 21.9485 121.746 11.512 116.361C1.07547 110.975 -3.01443 98.1584 2.37695 87.7333Z" fill="url(#paint2_linear_7_276)"/>
<defs>
<linearGradient id="paint0_linear_7_276" x1="86.6361" y1="-8.50731" x2="100.273" y2="129.44" gradientUnits="userSpaceOnUse">
<stop stop-color="#3164E6"/>
<stop offset="1" stop-color="#86FFAF"/>
</linearGradient>
<linearGradient id="paint1_linear_7_276" x1="74.8141" y1="12.7389" x2="98.6737" y2="113.463" gradientUnits="userSpaceOnUse">
<stop stop-color="#86FFAF"/>
<stop offset="1" stop-color="#3164E6"/>
</linearGradient>
<linearGradient id="paint2_linear_7_276" x1="74.8141" y1="12.7389" x2="98.6737" y2="113.463" gradientUnits="userSpaceOnUse">
<stop stop-color="#86FFAF"/>
<stop offset="1" stop-color="#3164E6"/>
</linearGradient>
</defs>
</svg>
