<svg width="190" height="119" viewBox="0 0 190 119" fill="none" xmlns="http://www.w3.org/2000/svg">
<path d="M152.955 98.3028C137.093 128.975 91.8808 124.611 82.191 91.4729L71.4134 54.6152C70.8879 52.8179 68.4358 52.5813 67.5755 54.2448L40.171 107.236C45.5624 96.8107 29.0856 42.3061 37.045 20.6972C52.9069 -9.97442 98.1193 -5.61087 107.809 27.5271L118.587 64.3848C119.112 66.1821 121.564 66.4187 122.425 64.7552L149.829 11.7642C144.438 22.1893 160.915 76.6939 152.955 98.3028Z" fill="#52DFBD"/>
<path d="M187.623 31.2666L152.955 98.3027C160.915 76.6937 144.438 22.1891 149.829 11.764C155.22 1.33894 168.051 -2.74648 178.488 2.639C188.925 8.02447 193.014 20.8415 187.623 31.2666Z" fill="#459CEC"/>
<path d="M2.37695 87.7331L37.045 20.6971C29.0856 42.3059 45.5624 96.8106 40.171 107.236C34.7796 117.661 21.9485 121.746 11.512 116.361C1.07547 110.975 -3.01443 98.1582 2.37695 87.7331Z" fill="#459CEC"/>
</svg>
