<svg width="1920" height="540" viewBox="0 0 1920 540" fill="none" xmlns="http://www.w3.org/2000/svg">
<g clip-path="url(#clip0_2007_2)">
<rect width="1920" height="540" fill="white"/>
<path d="M1108.49 228.896C1106.44 228.896 1104.86 228.341 1103.75 227.232C1102.64 226.037 1102.09 224.416 1102.09 222.368V171.168C1102.09 169.035 1102.64 167.413 1103.75 166.304C1104.86 165.195 1106.4 164.64 1108.36 164.64C1110.41 164.64 1111.94 165.195 1112.97 166.304C1114.08 167.413 1114.63 169.035 1114.63 171.168V181.152L1113.22 178.848C1115.1 174.069 1118.05 170.485 1122.06 168.096C1126.07 165.621 1130.67 164.384 1135.88 164.384C1140.83 164.384 1144.93 165.323 1148.17 167.2C1151.5 168.992 1153.97 171.765 1155.59 175.52C1157.21 179.189 1158.02 183.84 1158.02 189.472V222.368C1158.02 224.416 1157.47 226.037 1156.36 227.232C1155.25 228.341 1153.67 228.896 1151.62 228.896C1149.49 228.896 1147.87 228.341 1146.76 227.232C1145.65 226.037 1145.1 224.416 1145.1 222.368V190.24C1145.1 184.864 1144.03 180.939 1141.9 178.464C1139.85 175.989 1136.61 174.752 1132.17 174.752C1126.96 174.752 1122.78 176.373 1119.62 179.616C1116.55 182.859 1115.02 187.211 1115.02 192.672V222.368C1115.02 226.72 1112.84 228.896 1108.49 228.896ZM1205.15 229.152C1198.32 229.152 1192.44 227.872 1187.49 225.312C1182.62 222.667 1178.82 218.955 1176.09 214.176C1173.45 209.312 1172.13 203.552 1172.13 196.896C1172.13 190.411 1173.45 184.736 1176.09 179.872C1178.74 175.008 1182.37 171.211 1186.97 168.48C1191.58 165.749 1196.83 164.384 1202.72 164.384C1207.07 164.384 1210.95 165.109 1214.37 166.56C1217.78 167.925 1220.68 169.973 1223.07 172.704C1225.54 175.349 1227.38 178.592 1228.57 182.432C1229.85 186.272 1230.49 190.581 1230.49 195.36C1230.49 196.811 1230.07 197.92 1229.21 198.688C1228.36 199.371 1227.08 199.712 1225.37 199.712H1182.37V191.776H1221.79L1219.61 193.568C1219.61 189.301 1218.97 185.675 1217.69 182.688C1216.5 179.701 1214.66 177.44 1212.19 175.904C1209.8 174.283 1206.81 173.472 1203.23 173.472C1199.22 173.472 1195.81 174.411 1192.99 176.288C1190.26 178.165 1188.17 180.768 1186.72 184.096C1185.27 187.424 1184.54 191.307 1184.54 195.744V196.512C1184.54 204.021 1186.29 209.696 1189.79 213.536C1193.37 217.291 1198.54 219.168 1205.28 219.168C1207.84 219.168 1210.53 218.827 1213.34 218.144C1216.24 217.461 1218.97 216.309 1221.53 214.688C1222.98 213.835 1224.26 213.451 1225.37 213.536C1226.57 213.621 1227.51 214.005 1228.19 214.688C1228.96 215.371 1229.43 216.224 1229.6 217.248C1229.77 218.272 1229.6 219.339 1229.09 220.448C1228.57 221.472 1227.68 222.411 1226.4 223.264C1223.5 225.227 1220.13 226.72 1216.29 227.744C1212.45 228.683 1208.73 229.152 1205.15 229.152ZM1267.91 228.896C1266.11 228.896 1264.53 228.427 1263.17 227.488C1261.89 226.549 1260.82 225.099 1259.97 223.136L1238.59 173.472C1237.91 171.936 1237.65 170.485 1237.83 169.12C1238 167.755 1238.64 166.688 1239.75 165.92C1240.85 165.067 1242.35 164.64 1244.23 164.64C1245.85 164.64 1247.13 165.024 1248.07 165.792C1249 166.56 1249.86 167.883 1250.62 169.76L1269.95 217.376H1266.37L1286.08 169.76C1286.85 167.883 1287.7 166.56 1288.64 165.792C1289.67 165.024 1291.07 164.64 1292.87 164.64C1294.4 164.64 1295.6 165.067 1296.45 165.92C1297.39 166.688 1297.94 167.755 1298.11 169.12C1298.37 170.4 1298.16 171.808 1297.47 173.344L1275.84 223.136C1275.07 225.099 1274.01 226.549 1272.64 227.488C1271.28 228.427 1269.7 228.896 1267.91 228.896ZM1328.93 229.152C1324.58 229.152 1320.65 228.299 1317.16 226.592C1313.74 224.885 1311.05 222.581 1309.09 219.68C1307.13 216.779 1306.15 213.493 1306.15 209.824C1306.15 205.216 1307.3 201.589 1309.6 198.944C1311.99 196.213 1315.88 194.293 1321.25 193.184C1326.71 191.989 1334.05 191.392 1343.27 191.392H1349.28V199.328H1343.4C1337.25 199.328 1332.39 199.627 1328.8 200.224C1325.22 200.821 1322.66 201.845 1321.12 203.296C1319.67 204.661 1318.95 206.581 1318.95 209.056C1318.95 212.299 1320.06 214.944 1322.28 216.992C1324.49 218.955 1327.57 219.936 1331.49 219.936C1334.65 219.936 1337.42 219.211 1339.81 217.76C1342.2 216.224 1344.08 214.176 1345.44 211.616C1346.89 209.056 1347.62 206.112 1347.62 202.784V188.064C1347.62 183.2 1346.6 179.701 1344.55 177.568C1342.5 175.435 1339.13 174.368 1334.44 174.368C1331.7 174.368 1328.85 174.709 1325.86 175.392C1322.96 176.075 1319.93 177.227 1316.77 178.848C1315.32 179.531 1314.08 179.744 1313.06 179.488C1312.04 179.232 1311.22 178.677 1310.63 177.824C1310.03 176.885 1309.69 175.904 1309.6 174.88C1309.6 173.771 1309.86 172.704 1310.37 171.68C1310.97 170.656 1311.95 169.888 1313.32 169.376C1317.07 167.584 1320.78 166.304 1324.45 165.536C1328.12 164.768 1331.58 164.384 1334.82 164.384C1340.54 164.384 1345.23 165.28 1348.9 167.072C1352.65 168.864 1355.43 171.595 1357.22 175.264C1359.01 178.933 1359.91 183.669 1359.91 189.472V222.368C1359.91 224.416 1359.4 226.037 1358.37 227.232C1357.35 228.341 1355.85 228.896 1353.89 228.896C1352.01 228.896 1350.52 228.341 1349.41 227.232C1348.3 226.037 1347.75 224.416 1347.75 222.368V214.048H1348.9C1348.22 217.205 1346.94 219.936 1345.06 222.24C1343.27 224.459 1341.01 226.165 1338.28 227.36C1335.54 228.555 1332.43 229.152 1328.93 229.152ZM1102.66 315.448C1101.64 315.448 1100.83 315.171 1100.23 314.616C1099.68 314.019 1099.4 313.208 1099.4 312.184V288.76H1095.82C1095.01 288.76 1094.37 288.547 1093.9 288.12C1093.43 287.651 1093.19 287.032 1093.19 286.264C1093.19 285.453 1093.43 284.835 1093.9 284.408C1094.37 283.981 1095.01 283.768 1095.82 283.768H1101.26L1099.4 285.496V283.192C1099.4 278.968 1100.45 275.789 1102.54 273.656C1104.63 271.48 1107.68 270.2 1111.69 269.816L1113.67 269.688C1114.4 269.603 1114.97 269.709 1115.4 270.008C1115.83 270.307 1116.1 270.691 1116.23 271.16C1116.36 271.629 1116.36 272.12 1116.23 272.632C1116.15 273.101 1115.93 273.528 1115.59 273.912C1115.25 274.296 1114.82 274.509 1114.31 274.552L1113.1 274.616C1110.58 274.829 1108.74 275.555 1107.59 276.792C1106.44 277.987 1105.86 279.821 1105.86 282.296V284.792L1104.97 283.768H1112.07C1112.97 283.768 1113.63 283.981 1114.06 284.408C1114.53 284.835 1114.76 285.453 1114.76 286.264C1114.76 287.032 1114.53 287.651 1114.06 288.12C1113.63 288.547 1112.97 288.76 1112.07 288.76H1105.86V312.184C1105.86 314.36 1104.8 315.448 1102.66 315.448ZM1129.8 315.576C1126.47 315.576 1123.95 314.616 1122.25 312.696C1120.58 310.733 1119.75 307.917 1119.75 304.248V272.696C1119.75 271.629 1120.03 270.819 1120.58 270.264C1121.14 269.709 1121.93 269.432 1122.95 269.432C1123.98 269.432 1124.77 269.709 1125.32 270.264C1125.92 270.819 1126.22 271.629 1126.22 272.696V303.864C1126.22 305.997 1126.64 307.597 1127.5 308.664C1128.39 309.688 1129.67 310.2 1131.34 310.2C1131.72 310.2 1132.06 310.2 1132.36 310.2C1132.66 310.157 1132.96 310.115 1133.26 310.072C1133.77 310.029 1134.13 310.179 1134.34 310.52C1134.56 310.819 1134.66 311.459 1134.66 312.44C1134.66 313.336 1134.47 314.04 1134.09 314.552C1133.7 315.021 1133.09 315.32 1132.23 315.448C1131.85 315.491 1131.44 315.512 1131.02 315.512C1130.59 315.555 1130.18 315.576 1129.8 315.576ZM1152.67 315.576C1149.52 315.576 1146.79 314.915 1144.48 313.592C1142.22 312.269 1140.45 310.392 1139.17 307.96C1137.89 305.528 1137.25 302.669 1137.25 299.384C1137.25 296.867 1137.61 294.627 1138.34 292.664C1139.06 290.701 1140.09 289.016 1141.41 287.608C1142.78 286.157 1144.4 285.069 1146.27 284.344C1148.19 283.576 1150.33 283.192 1152.67 283.192C1155.79 283.192 1158.48 283.853 1160.74 285.176C1163.04 286.499 1164.83 288.376 1166.11 290.808C1167.39 293.197 1168.03 296.056 1168.03 299.384C1168.03 301.859 1167.67 304.099 1166.95 306.104C1166.22 308.109 1165.18 309.816 1163.81 311.224C1162.49 312.632 1160.87 313.72 1158.95 314.488C1157.07 315.213 1154.98 315.576 1152.67 315.576ZM1152.67 310.584C1154.42 310.584 1155.96 310.157 1157.28 309.304C1158.61 308.451 1159.63 307.192 1160.35 305.528C1161.12 303.864 1161.51 301.816 1161.51 299.384C1161.51 295.715 1160.7 292.941 1159.07 291.064C1157.45 289.187 1155.32 288.248 1152.67 288.248C1150.88 288.248 1149.33 288.675 1148 289.528C1146.68 290.339 1145.63 291.576 1144.87 293.24C1144.14 294.904 1143.78 296.952 1143.78 299.384C1143.78 303.011 1144.59 305.784 1146.21 307.704C1147.83 309.624 1149.99 310.584 1152.67 310.584ZM1186.12 315.448C1185.23 315.448 1184.44 315.235 1183.76 314.808C1183.12 314.339 1182.6 313.613 1182.22 312.632L1172.81 287.736C1172.47 286.883 1172.36 286.136 1172.49 285.496C1172.62 284.813 1172.94 284.28 1173.45 283.896C1174.01 283.512 1174.71 283.32 1175.56 283.32C1176.33 283.32 1176.95 283.512 1177.42 283.896C1177.93 284.237 1178.36 284.92 1178.7 285.944L1187.08 309.56H1185.55L1194.25 285.688C1194.55 284.877 1194.96 284.28 1195.47 283.896C1195.98 283.512 1196.64 283.32 1197.45 283.32C1198.26 283.32 1198.92 283.512 1199.44 283.896C1199.99 284.28 1200.4 284.877 1200.65 285.688L1209.16 309.56H1207.76L1216.27 285.816C1216.61 284.835 1217.04 284.173 1217.55 283.832C1218.1 283.491 1218.72 283.32 1219.4 283.32C1220.26 283.32 1220.9 283.533 1221.32 283.96C1221.79 284.387 1222.05 284.941 1222.09 285.624C1222.18 286.264 1222.07 286.968 1221.77 287.736L1212.36 312.632C1211.98 313.571 1211.45 314.275 1210.76 314.744C1210.12 315.213 1209.38 315.448 1208.52 315.448C1207.63 315.448 1206.84 315.213 1206.16 314.744C1205.52 314.275 1205 313.571 1204.62 312.632L1195.66 288.376H1198.86L1189.96 312.632C1189.62 313.571 1189.11 314.275 1188.43 314.744C1187.79 315.213 1187.02 315.448 1186.12 315.448ZM1262.5 315.576C1259.77 315.576 1257.4 314.893 1255.4 313.528C1253.39 312.12 1252.05 310.264 1251.36 307.96L1252.07 306.808V312.184C1252.07 313.208 1251.79 314.019 1251.24 314.616C1250.68 315.171 1249.91 315.448 1248.93 315.448C1247.91 315.448 1247.12 315.171 1246.56 314.616C1246.01 314.019 1245.73 313.208 1245.73 312.184V272.696C1245.73 271.629 1246.01 270.819 1246.56 270.264C1247.12 269.709 1247.91 269.432 1248.93 269.432C1249.96 269.432 1250.74 269.709 1251.3 270.264C1251.9 270.819 1252.2 271.629 1252.2 272.696V290.616H1251.43C1252.11 288.355 1253.45 286.563 1255.46 285.24C1257.46 283.875 1259.81 283.192 1262.5 283.192C1265.32 283.192 1267.75 283.853 1269.8 285.176C1271.84 286.499 1273.42 288.355 1274.53 290.744C1275.68 293.133 1276.26 296.013 1276.26 299.384C1276.26 302.669 1275.68 305.549 1274.53 308.024C1273.42 310.456 1271.82 312.333 1269.73 313.656C1267.68 314.936 1265.27 315.576 1262.5 315.576ZM1260.9 310.584C1262.69 310.584 1264.25 310.157 1265.57 309.304C1266.89 308.451 1267.92 307.192 1268.64 305.528C1269.37 303.864 1269.73 301.816 1269.73 299.384C1269.73 295.715 1268.92 292.941 1267.3 291.064C1265.72 289.187 1263.59 288.248 1260.9 288.248C1259.15 288.248 1257.59 288.675 1256.23 289.528C1254.9 290.339 1253.88 291.576 1253.16 293.24C1252.43 294.904 1252.07 296.952 1252.07 299.384C1252.07 303.011 1252.88 305.784 1254.5 307.704C1256.12 309.624 1258.25 310.584 1260.9 310.584ZM1293.53 315.576C1291.35 315.576 1289.39 315.149 1287.64 314.296C1285.93 313.443 1284.59 312.291 1283.61 310.84C1282.63 309.389 1282.14 307.747 1282.14 305.912C1282.14 303.608 1282.71 301.795 1283.86 300.472C1285.06 299.107 1287 298.147 1289.69 297.592C1292.42 296.995 1296.09 296.696 1300.7 296.696H1303.7V300.664H1300.76C1297.69 300.664 1295.26 300.813 1293.46 301.112C1291.67 301.411 1290.39 301.923 1289.62 302.648C1288.9 303.331 1288.54 304.291 1288.54 305.528C1288.54 307.149 1289.09 308.472 1290.2 309.496C1291.31 310.477 1292.85 310.968 1294.81 310.968C1296.39 310.968 1297.77 310.605 1298.97 309.88C1300.16 309.112 1301.1 308.088 1301.78 306.808C1302.51 305.528 1302.87 304.056 1302.87 302.392V295.032C1302.87 292.6 1302.36 290.851 1301.34 289.784C1300.31 288.717 1298.63 288.184 1296.28 288.184C1294.91 288.184 1293.49 288.355 1291.99 288.696C1290.54 289.037 1289.03 289.613 1287.45 290.424C1286.72 290.765 1286.1 290.872 1285.59 290.744C1285.08 290.616 1284.67 290.339 1284.38 289.912C1284.08 289.443 1283.91 288.952 1283.86 288.44C1283.86 287.885 1283.99 287.352 1284.25 286.84C1284.55 286.328 1285.04 285.944 1285.72 285.688C1287.6 284.792 1289.45 284.152 1291.29 283.768C1293.12 283.384 1294.85 283.192 1296.47 283.192C1299.33 283.192 1301.68 283.64 1303.51 284.536C1305.39 285.432 1306.78 286.797 1307.67 288.632C1308.57 290.467 1309.02 292.835 1309.02 295.736V312.184C1309.02 313.208 1308.76 314.019 1308.25 314.616C1307.74 315.171 1306.99 315.448 1306.01 315.448C1305.07 315.448 1304.32 315.171 1303.77 314.616C1303.21 314.019 1302.94 313.208 1302.94 312.184V308.024H1303.51C1303.17 309.603 1302.53 310.968 1301.59 312.12C1300.7 313.229 1299.57 314.083 1298.2 314.68C1296.83 315.277 1295.28 315.576 1293.53 315.576ZM1328.86 315.576C1326.99 315.576 1325.04 315.363 1323.04 314.936C1321.08 314.509 1319.26 313.784 1317.6 312.76C1317.04 312.376 1316.66 311.949 1316.45 311.48C1316.23 311.011 1316.15 310.541 1316.19 310.072C1316.28 309.56 1316.47 309.133 1316.77 308.792C1317.11 308.408 1317.51 308.173 1317.98 308.088C1318.5 308.003 1319.03 308.109 1319.58 308.408C1321.25 309.347 1322.85 310.008 1324.38 310.392C1325.92 310.733 1327.43 310.904 1328.93 310.904C1331.19 310.904 1332.9 310.499 1334.05 309.688C1335.2 308.877 1335.78 307.789 1335.78 306.424C1335.78 305.315 1335.39 304.461 1334.62 303.864C1333.86 303.224 1332.7 302.733 1331.17 302.392L1325.09 301.176C1322.44 300.621 1320.44 299.64 1319.07 298.232C1317.71 296.824 1317.02 295.032 1317.02 292.856C1317.02 290.893 1317.56 289.187 1318.62 287.736C1319.69 286.285 1321.18 285.176 1323.1 284.408C1325.02 283.597 1327.24 283.192 1329.76 283.192C1331.64 283.192 1333.41 283.427 1335.07 283.896C1336.74 284.365 1338.27 285.069 1339.68 286.008C1340.23 286.307 1340.6 286.712 1340.77 287.224C1340.94 287.693 1340.96 288.163 1340.83 288.632C1340.75 289.101 1340.53 289.528 1340.19 289.912C1339.85 290.253 1339.42 290.467 1338.91 290.552C1338.44 290.595 1337.91 290.467 1337.31 290.168C1336.03 289.357 1334.75 288.781 1333.47 288.44C1332.23 288.099 1331 287.928 1329.76 287.928C1327.5 287.928 1325.79 288.355 1324.64 289.208C1323.53 290.019 1322.98 291.128 1322.98 292.536C1322.98 293.603 1323.32 294.477 1324 295.16C1324.68 295.843 1325.75 296.333 1327.2 296.632L1333.28 297.848C1336.05 298.403 1338.14 299.341 1339.55 300.664C1341 301.987 1341.73 303.779 1341.73 306.04C1341.73 308.984 1340.55 311.309 1338.21 313.016C1335.86 314.723 1332.75 315.576 1328.86 315.576ZM1363.58 315.576C1360.16 315.576 1357.22 314.936 1354.74 313.656C1352.31 312.333 1350.41 310.477 1349.05 308.088C1347.72 305.656 1347.06 302.776 1347.06 299.448C1347.06 296.205 1347.72 293.368 1349.05 290.936C1350.37 288.504 1352.18 286.605 1354.49 285.24C1356.79 283.875 1359.42 283.192 1362.36 283.192C1364.54 283.192 1366.48 283.555 1368.18 284.28C1369.89 284.963 1371.34 285.987 1372.54 287.352C1373.77 288.675 1374.69 290.296 1375.29 292.216C1375.93 294.136 1376.25 296.291 1376.25 298.68C1376.25 299.405 1376.03 299.96 1375.61 300.344C1375.18 300.685 1374.54 300.856 1373.69 300.856H1352.18V296.888H1371.9L1370.81 297.784C1370.81 295.651 1370.49 293.837 1369.85 292.344C1369.25 290.851 1368.33 289.72 1367.1 288.952C1365.9 288.141 1364.41 287.736 1362.62 287.736C1360.61 287.736 1358.9 288.205 1357.5 289.144C1356.13 290.083 1355.08 291.384 1354.36 293.048C1353.63 294.712 1353.27 296.653 1353.27 298.872V299.256C1353.27 303.011 1354.15 305.848 1355.9 307.768C1357.69 309.645 1360.27 310.584 1363.64 310.584C1364.92 310.584 1366.26 310.413 1367.67 310.072C1369.12 309.731 1370.49 309.155 1371.77 308.344C1372.49 307.917 1373.13 307.725 1373.69 307.768C1374.28 307.811 1374.75 308.003 1375.1 308.344C1375.48 308.685 1375.71 309.112 1375.8 309.624C1375.88 310.136 1375.8 310.669 1375.54 311.224C1375.29 311.736 1374.84 312.205 1374.2 312.632C1372.75 313.613 1371.06 314.36 1369.14 314.872C1367.22 315.341 1365.37 315.576 1363.58 315.576ZM1395.2 315.576C1392.47 315.576 1390.06 314.936 1387.97 313.656C1385.92 312.333 1384.32 310.456 1383.17 308.024C1382.01 305.549 1381.44 302.669 1381.44 299.384C1381.44 296.013 1382.01 293.133 1383.17 290.744C1384.32 288.355 1385.92 286.499 1387.97 285.176C1390.06 283.853 1392.47 283.192 1395.2 283.192C1397.93 283.192 1400.28 283.875 1402.24 285.24C1404.24 286.563 1405.59 288.355 1406.27 290.616H1405.57V272.696C1405.57 271.629 1405.84 270.819 1406.4 270.264C1406.95 269.709 1407.74 269.432 1408.77 269.432C1409.79 269.432 1410.58 269.709 1411.13 270.264C1411.73 270.819 1412.03 271.629 1412.03 272.696V312.184C1412.03 313.208 1411.75 314.019 1411.2 314.616C1410.64 315.171 1409.85 315.448 1408.83 315.448C1407.81 315.448 1407.02 315.171 1406.46 314.616C1405.91 314.019 1405.63 313.208 1405.63 312.184V306.552L1406.33 307.96C1405.65 310.264 1404.31 312.12 1402.3 313.528C1400.34 314.893 1397.97 315.576 1395.2 315.576ZM1396.86 310.584C1398.61 310.584 1400.15 310.157 1401.47 309.304C1402.79 308.451 1403.82 307.192 1404.54 305.528C1405.31 303.864 1405.69 301.816 1405.69 299.384C1405.69 295.715 1404.88 292.941 1403.26 291.064C1401.64 289.187 1399.51 288.248 1396.86 288.248C1395.07 288.248 1393.51 288.675 1392.19 289.528C1390.87 290.339 1389.82 291.576 1389.05 293.24C1388.33 294.904 1387.97 296.952 1387.97 299.384C1387.97 303.011 1388.78 305.784 1390.4 307.704C1392.02 309.624 1394.17 310.584 1396.86 310.584ZM1100.74 413.968C1099.72 413.968 1098.93 413.691 1098.38 413.136C1097.82 412.581 1097.54 411.771 1097.54 410.704V373.584C1097.54 372.517 1097.82 371.707 1098.38 371.152C1098.93 370.597 1099.7 370.32 1100.68 370.32C1101.7 370.32 1102.49 370.597 1103.05 371.152C1103.6 371.707 1103.88 372.517 1103.88 373.584V379.152L1103.18 377.808C1103.86 375.504 1105.2 373.669 1107.21 372.304C1109.21 370.896 1111.58 370.192 1114.31 370.192C1117.09 370.192 1119.5 370.853 1121.54 372.176C1123.63 373.499 1125.23 375.355 1126.34 377.744C1127.5 380.133 1128.07 383.013 1128.07 386.384C1128.07 389.669 1127.5 392.549 1126.34 395.024C1125.23 397.456 1123.66 399.333 1121.61 400.656C1119.56 401.936 1117.13 402.576 1114.31 402.576C1111.62 402.576 1109.28 401.893 1107.27 400.528C1105.27 399.163 1103.92 397.349 1103.24 395.088H1104.01V410.704C1104.01 411.771 1103.71 412.581 1103.11 413.136C1102.56 413.691 1101.77 413.968 1100.74 413.968ZM1112.71 397.584C1114.5 397.584 1116.06 397.157 1117.38 396.304C1118.71 395.451 1119.73 394.192 1120.46 392.528C1121.18 390.864 1121.54 388.816 1121.54 386.384C1121.54 382.715 1120.73 379.941 1119.11 378.064C1117.53 376.187 1115.4 375.248 1112.71 375.248C1110.96 375.248 1109.41 375.675 1108.04 376.528C1106.72 377.339 1105.69 378.576 1104.97 380.24C1104.24 381.904 1103.88 383.952 1103.88 386.384C1103.88 390.011 1104.69 392.784 1106.31 394.704C1107.93 396.624 1110.07 397.584 1112.71 397.584ZM1138.62 402.448C1137.55 402.448 1136.74 402.171 1136.19 401.616C1135.63 401.019 1135.36 400.208 1135.36 399.184V373.584C1135.36 372.517 1135.63 371.707 1136.19 371.152C1136.74 370.597 1137.51 370.32 1138.49 370.32C1139.52 370.32 1140.28 370.597 1140.8 371.152C1141.35 371.707 1141.63 372.517 1141.63 373.584V378.256H1140.99C1141.67 375.696 1142.93 373.755 1144.76 372.432C1146.6 371.109 1148.95 370.341 1151.8 370.128C1152.57 370.085 1153.17 370.277 1153.6 370.704C1154.07 371.131 1154.32 371.792 1154.36 372.688C1154.45 373.584 1154.26 374.309 1153.79 374.864C1153.32 375.376 1152.59 375.675 1151.61 375.76L1150.4 375.888C1147.62 376.144 1145.51 377.019 1144.06 378.512C1142.61 380.005 1141.88 382.053 1141.88 384.656V399.184C1141.88 400.208 1141.61 401.019 1141.05 401.616C1140.54 402.171 1139.73 402.448 1138.62 402.448ZM1172.36 402.576C1169.2 402.576 1166.47 401.915 1164.17 400.592C1161.91 399.269 1160.14 397.392 1158.86 394.96C1157.58 392.528 1156.94 389.669 1156.94 386.384C1156.94 383.867 1157.3 381.627 1158.03 379.664C1158.75 377.701 1159.78 376.016 1161.1 374.608C1162.46 373.157 1164.08 372.069 1165.96 371.344C1167.88 370.576 1170.02 370.192 1172.36 370.192C1175.48 370.192 1178.16 370.853 1180.43 372.176C1182.73 373.499 1184.52 375.376 1185.8 377.808C1187.08 380.197 1187.72 383.056 1187.72 386.384C1187.72 388.859 1187.36 391.099 1186.63 393.104C1185.91 395.109 1184.86 396.816 1183.5 398.224C1182.18 399.632 1180.55 400.72 1178.63 401.488C1176.76 402.213 1174.67 402.576 1172.36 402.576ZM1172.36 397.584C1174.11 397.584 1175.65 397.157 1176.97 396.304C1178.29 395.451 1179.32 394.192 1180.04 392.528C1180.81 390.864 1181.19 388.816 1181.19 386.384C1181.19 382.715 1180.38 379.941 1178.76 378.064C1177.14 376.187 1175.01 375.248 1172.36 375.248C1170.57 375.248 1169.01 375.675 1167.69 376.528C1166.37 377.339 1165.32 378.576 1164.55 380.24C1163.83 381.904 1163.47 383.952 1163.47 386.384C1163.47 390.011 1164.28 392.784 1165.9 394.704C1167.52 396.624 1169.67 397.584 1172.36 397.584ZM1209.13 414.096C1206.82 414.096 1204.58 413.861 1202.41 413.392C1200.27 412.923 1198.33 412.155 1196.58 411.088C1195.94 410.747 1195.51 410.32 1195.3 409.808C1195.09 409.339 1195.02 408.848 1195.11 408.336C1195.24 407.824 1195.47 407.376 1195.81 406.992C1196.15 406.608 1196.56 406.352 1197.03 406.224C1197.54 406.096 1198.07 406.181 1198.63 406.48C1200.51 407.504 1202.28 408.187 1203.94 408.528C1205.65 408.912 1207.23 409.104 1208.68 409.104C1211.66 409.104 1213.9 408.336 1215.4 406.8C1216.89 405.307 1217.64 403.088 1217.64 400.144V393.616H1218.21C1217.57 395.963 1216.23 397.819 1214.18 399.184C1212.13 400.549 1209.77 401.232 1207.08 401.232C1204.26 401.232 1201.81 400.592 1199.72 399.312C1197.63 397.989 1196.01 396.176 1194.85 393.872C1193.7 391.525 1193.13 388.795 1193.13 385.68C1193.13 383.333 1193.45 381.221 1194.09 379.344C1194.77 377.467 1195.71 375.845 1196.9 374.48C1198.14 373.115 1199.61 372.069 1201.32 371.344C1203.07 370.576 1204.99 370.192 1207.08 370.192C1209.81 370.192 1212.18 370.875 1214.18 372.24C1216.23 373.605 1217.55 375.461 1218.15 377.808L1217.51 378.896V373.584C1217.51 372.517 1217.79 371.707 1218.34 371.152C1218.94 370.597 1219.73 370.32 1220.71 370.32C1221.73 370.32 1222.52 370.597 1223.08 371.152C1223.63 371.707 1223.91 372.517 1223.91 373.584V399.376C1223.91 404.24 1222.65 407.909 1220.13 410.384C1217.62 412.859 1213.95 414.096 1209.13 414.096ZM1208.61 396.176C1210.49 396.176 1212.09 395.749 1213.41 394.896C1214.74 394.043 1215.76 392.827 1216.49 391.248C1217.21 389.669 1217.57 387.813 1217.57 385.68C1217.57 382.48 1216.76 379.941 1215.14 378.064C1213.56 376.187 1211.39 375.248 1208.61 375.248C1206.78 375.248 1205.2 375.675 1203.88 376.528C1202.55 377.381 1201.51 378.597 1200.74 380.176C1200.02 381.712 1199.65 383.547 1199.65 385.68C1199.65 388.923 1200.46 391.483 1202.09 393.36C1203.71 395.237 1205.88 396.176 1208.61 396.176ZM1236.25 402.448C1235.18 402.448 1234.37 402.171 1233.81 401.616C1233.26 401.019 1232.98 400.208 1232.98 399.184V373.584C1232.98 372.517 1233.26 371.707 1233.81 371.152C1234.37 370.597 1235.14 370.32 1236.12 370.32C1237.14 370.32 1237.91 370.597 1238.42 371.152C1238.98 371.707 1239.25 372.517 1239.25 373.584V378.256H1238.61C1239.3 375.696 1240.55 373.755 1242.39 372.432C1244.22 371.109 1246.57 370.341 1249.43 370.128C1250.2 370.085 1250.79 370.277 1251.22 370.704C1251.69 371.131 1251.95 371.792 1251.99 372.688C1252.07 373.584 1251.88 374.309 1251.41 374.864C1250.94 375.376 1250.22 375.675 1249.24 375.76L1248.02 375.888C1245.25 376.144 1243.14 377.019 1241.69 378.512C1240.23 380.005 1239.51 382.053 1239.51 384.656V399.184C1239.51 400.208 1239.23 401.019 1238.68 401.616C1238.17 402.171 1237.35 402.448 1236.25 402.448ZM1266.53 402.576C1264.35 402.576 1262.39 402.149 1260.64 401.296C1258.93 400.443 1257.59 399.291 1256.61 397.84C1255.63 396.389 1255.14 394.747 1255.14 392.912C1255.14 390.608 1255.71 388.795 1256.86 387.472C1258.06 386.107 1260 385.147 1262.69 384.592C1265.42 383.995 1269.09 383.696 1273.7 383.696H1276.7V387.664H1273.76C1270.69 387.664 1268.26 387.813 1266.46 388.112C1264.67 388.411 1263.39 388.923 1262.62 389.648C1261.9 390.331 1261.54 391.291 1261.54 392.528C1261.54 394.149 1262.09 395.472 1263.2 396.496C1264.31 397.477 1265.85 397.968 1267.81 397.968C1269.39 397.968 1270.77 397.605 1271.97 396.88C1273.16 396.112 1274.1 395.088 1274.78 393.808C1275.51 392.528 1275.87 391.056 1275.87 389.392V382.032C1275.87 379.6 1275.36 377.851 1274.34 376.784C1273.31 375.717 1271.63 375.184 1269.28 375.184C1267.91 375.184 1266.49 375.355 1264.99 375.696C1263.54 376.037 1262.03 376.613 1260.45 377.424C1259.72 377.765 1259.1 377.872 1258.59 377.744C1258.08 377.616 1257.67 377.339 1257.38 376.912C1257.08 376.443 1256.91 375.952 1256.86 375.44C1256.86 374.885 1256.99 374.352 1257.25 373.84C1257.55 373.328 1258.04 372.944 1258.72 372.688C1260.6 371.792 1262.45 371.152 1264.29 370.768C1266.12 370.384 1267.85 370.192 1269.47 370.192C1272.33 370.192 1274.68 370.64 1276.51 371.536C1278.39 372.432 1279.78 373.797 1280.67 375.632C1281.57 377.467 1282.02 379.835 1282.02 382.736V399.184C1282.02 400.208 1281.76 401.019 1281.25 401.616C1280.74 402.171 1279.99 402.448 1279.01 402.448C1278.07 402.448 1277.32 402.171 1276.77 401.616C1276.21 401.019 1275.94 400.208 1275.94 399.184V395.024H1276.51C1276.17 396.603 1275.53 397.968 1274.59 399.12C1273.7 400.229 1272.57 401.083 1271.2 401.68C1269.83 402.277 1268.28 402.576 1266.53 402.576ZM1294.25 402.448C1293.22 402.448 1292.43 402.171 1291.88 401.616C1291.32 401.019 1291.05 400.208 1291.05 399.184V373.584C1291.05 372.517 1291.32 371.707 1291.88 371.152C1292.43 370.597 1293.2 370.32 1294.18 370.32C1295.21 370.32 1295.98 370.597 1296.49 371.152C1297.04 371.707 1297.32 372.517 1297.32 373.584V378.832L1296.62 377.424C1297.47 375.163 1298.79 373.392 1300.58 372.112C1302.38 370.832 1304.53 370.192 1307.05 370.192C1309.65 370.192 1311.76 370.811 1313.38 372.048C1315 373.285 1316.11 375.184 1316.71 377.744H1315.82C1316.63 375.397 1318.01 373.563 1319.98 372.24C1321.94 370.875 1324.22 370.192 1326.82 370.192C1329.21 370.192 1331.18 370.661 1332.71 371.6C1334.25 372.496 1335.4 373.883 1336.17 375.76C1336.94 377.595 1337.32 379.92 1337.32 382.736V399.184C1337.32 400.208 1337.02 401.019 1336.42 401.616C1335.87 402.171 1335.08 402.448 1334.06 402.448C1333.03 402.448 1332.24 402.171 1331.69 401.616C1331.13 401.019 1330.86 400.208 1330.86 399.184V383.056C1330.86 380.411 1330.39 378.469 1329.45 377.232C1328.55 375.995 1327.06 375.376 1324.97 375.376C1322.62 375.376 1320.76 376.187 1319.4 377.808C1318.03 379.429 1317.35 381.669 1317.35 384.528V399.184C1317.35 400.208 1317.07 401.019 1316.52 401.616C1315.96 402.171 1315.18 402.448 1314.15 402.448C1313.13 402.448 1312.32 402.171 1311.72 401.616C1311.16 401.019 1310.89 400.208 1310.89 399.184V383.056C1310.89 380.411 1310.44 378.469 1309.54 377.232C1308.65 375.995 1307.15 375.376 1305.06 375.376C1302.72 375.376 1300.86 376.187 1299.5 377.808C1298.17 379.429 1297.51 381.669 1297.51 384.528V399.184C1297.51 401.36 1296.42 402.448 1294.25 402.448ZM1349.68 402.448C1348.66 402.448 1347.87 402.171 1347.32 401.616C1346.76 401.019 1346.48 400.208 1346.48 399.184V373.584C1346.48 372.517 1346.76 371.707 1347.32 371.152C1347.87 370.597 1348.64 370.32 1349.62 370.32C1350.64 370.32 1351.41 370.597 1351.92 371.152C1352.48 371.707 1352.76 372.517 1352.76 373.584V378.832L1352.05 377.424C1352.91 375.163 1354.23 373.392 1356.02 372.112C1357.81 370.832 1359.97 370.192 1362.48 370.192C1365.09 370.192 1367.2 370.811 1368.82 372.048C1370.44 373.285 1371.55 375.184 1372.15 377.744H1371.25C1372.06 375.397 1373.45 373.563 1375.41 372.24C1377.38 370.875 1379.66 370.192 1382.26 370.192C1384.65 370.192 1386.61 370.661 1388.15 371.6C1389.68 372.496 1390.84 373.883 1391.6 375.76C1392.37 377.595 1392.76 379.92 1392.76 382.736V399.184C1392.76 400.208 1392.46 401.019 1391.86 401.616C1391.31 402.171 1390.52 402.448 1389.49 402.448C1388.47 402.448 1387.68 402.171 1387.12 401.616C1386.57 401.019 1386.29 400.208 1386.29 399.184V383.056C1386.29 380.411 1385.82 378.469 1384.88 377.232C1383.99 375.995 1382.5 375.376 1380.4 375.376C1378.06 375.376 1376.2 376.187 1374.84 377.808C1373.47 379.429 1372.79 381.669 1372.79 384.528V399.184C1372.79 400.208 1372.51 401.019 1371.96 401.616C1371.4 402.171 1370.61 402.448 1369.59 402.448C1368.56 402.448 1367.75 402.171 1367.16 401.616C1366.6 401.019 1366.32 400.208 1366.32 399.184V383.056C1366.32 380.411 1365.88 378.469 1364.98 377.232C1364.08 375.995 1362.59 375.376 1360.5 375.376C1358.15 375.376 1356.3 376.187 1354.93 377.808C1353.61 379.429 1352.95 381.669 1352.95 384.528V399.184C1352.95 401.36 1351.86 402.448 1349.68 402.448ZM1404.99 402.384C1403.97 402.384 1403.18 402.085 1402.63 401.488C1402.07 400.848 1401.79 399.973 1401.79 398.864V373.904C1401.79 372.795 1402.07 371.941 1402.63 371.344C1403.18 370.747 1403.97 370.448 1404.99 370.448C1406.02 370.448 1406.81 370.747 1407.36 371.344C1407.96 371.941 1408.26 372.795 1408.26 373.904V398.864C1408.26 399.973 1407.98 400.848 1407.43 401.488C1406.87 402.085 1406.06 402.384 1404.99 402.384ZM1404.99 363.792C1403.71 363.792 1402.71 363.472 1401.99 362.832C1401.3 362.192 1400.96 361.296 1400.96 360.144C1400.96 358.949 1401.3 358.053 1401.99 357.456C1402.71 356.816 1403.71 356.496 1404.99 356.496C1406.27 356.496 1407.26 356.816 1407.94 357.456C1408.66 358.053 1409.03 358.949 1409.03 360.144C1409.03 361.296 1408.66 362.192 1407.94 362.832C1407.26 363.472 1406.27 363.792 1404.99 363.792ZM1420.56 402.448C1419.53 402.448 1418.74 402.171 1418.19 401.616C1417.63 401.019 1417.36 400.208 1417.36 399.184V373.584C1417.36 372.517 1417.63 371.707 1418.19 371.152C1418.74 370.597 1419.51 370.32 1420.49 370.32C1421.52 370.32 1422.28 370.597 1422.8 371.152C1423.35 371.707 1423.63 372.517 1423.63 373.584V378.576L1422.92 377.424C1423.86 375.035 1425.34 373.243 1427.34 372.048C1429.35 370.811 1431.65 370.192 1434.25 370.192C1436.73 370.192 1438.78 370.661 1440.4 371.6C1442.06 372.496 1443.3 373.883 1444.11 375.76C1444.92 377.595 1445.32 379.92 1445.32 382.736V399.184C1445.32 400.208 1445.05 401.019 1444.49 401.616C1443.94 402.171 1443.15 402.448 1442.12 402.448C1441.06 402.448 1440.25 402.171 1439.69 401.616C1439.14 401.019 1438.86 400.208 1438.86 399.184V383.12C1438.86 380.432 1438.33 378.469 1437.26 377.232C1436.24 375.995 1434.62 375.376 1432.4 375.376C1429.79 375.376 1427.7 376.187 1426.12 377.808C1424.59 379.429 1423.82 381.605 1423.82 384.336V399.184C1423.82 401.36 1422.73 402.448 1420.56 402.448ZM1468.38 414.096C1466.07 414.096 1463.83 413.861 1461.66 413.392C1459.52 412.923 1457.58 412.155 1455.83 411.088C1455.19 410.747 1454.76 410.32 1454.55 409.808C1454.34 409.339 1454.27 408.848 1454.36 408.336C1454.49 407.824 1454.72 407.376 1455.06 406.992C1455.4 406.608 1455.81 406.352 1456.28 406.224C1456.79 406.096 1457.32 406.181 1457.88 406.48C1459.76 407.504 1461.53 408.187 1463.19 408.528C1464.9 408.912 1466.48 409.104 1467.93 409.104C1470.91 409.104 1473.15 408.336 1474.65 406.8C1476.14 405.307 1476.89 403.088 1476.89 400.144V393.616H1477.46C1476.82 395.963 1475.48 397.819 1473.43 399.184C1471.38 400.549 1469.02 401.232 1466.33 401.232C1463.51 401.232 1461.06 400.592 1458.97 399.312C1456.88 397.989 1455.26 396.176 1454.1 393.872C1452.95 391.525 1452.38 388.795 1452.38 385.68C1452.38 383.333 1452.7 381.221 1453.34 379.344C1454.02 377.467 1454.96 375.845 1456.15 374.48C1457.39 373.115 1458.86 372.069 1460.57 371.344C1462.32 370.576 1464.24 370.192 1466.33 370.192C1469.06 370.192 1471.43 370.875 1473.43 372.24C1475.48 373.605 1476.8 375.461 1477.4 377.808L1476.76 378.896V373.584C1476.76 372.517 1477.04 371.707 1477.59 371.152C1478.19 370.597 1478.98 370.32 1479.96 370.32C1480.98 370.32 1481.77 370.597 1482.33 371.152C1482.88 371.707 1483.16 372.517 1483.16 373.584V399.376C1483.16 404.24 1481.9 407.909 1479.38 410.384C1476.87 412.859 1473.2 414.096 1468.38 414.096ZM1467.86 396.176C1469.74 396.176 1471.34 395.749 1472.66 394.896C1473.99 394.043 1475.01 392.827 1475.74 391.248C1476.46 389.669 1476.82 387.813 1476.82 385.68C1476.82 382.48 1476.01 379.941 1474.39 378.064C1472.81 376.187 1470.64 375.248 1467.86 375.248C1466.03 375.248 1464.45 375.675 1463.13 376.528C1461.8 377.381 1460.76 378.597 1459.99 380.176C1459.27 381.712 1458.9 383.547 1458.9 385.68C1458.9 388.923 1459.71 391.483 1461.34 393.36C1462.96 395.237 1465.13 396.176 1467.86 396.176ZM1519.15 402.576C1515.83 402.576 1513.31 401.616 1511.6 399.696C1509.94 397.733 1509.11 394.917 1509.11 391.248V359.696C1509.11 358.629 1509.38 357.819 1509.94 357.264C1510.49 356.709 1511.28 356.432 1512.31 356.432C1513.33 356.432 1514.12 356.709 1514.67 357.264C1515.27 357.819 1515.57 358.629 1515.57 359.696V390.864C1515.57 392.997 1516 394.597 1516.85 395.664C1517.75 396.688 1519.03 397.2 1520.69 397.2C1521.07 397.2 1521.42 397.2 1521.71 397.2C1522.01 397.157 1522.31 397.115 1522.61 397.072C1523.12 397.029 1523.49 397.179 1523.7 397.52C1523.91 397.819 1524.02 398.459 1524.02 399.44C1524.02 400.336 1523.83 401.04 1523.44 401.552C1523.06 402.021 1522.44 402.32 1521.59 402.448C1521.2 402.491 1520.8 402.512 1520.37 402.512C1519.94 402.555 1519.54 402.576 1519.15 402.576ZM1538.65 402.576C1536.48 402.576 1534.51 402.149 1532.77 401.296C1531.06 400.443 1529.71 399.291 1528.73 397.84C1527.75 396.389 1527.26 394.747 1527.26 392.912C1527.26 390.608 1527.84 388.795 1528.99 387.472C1530.18 386.107 1532.13 385.147 1534.81 384.592C1537.54 383.995 1541.21 383.696 1545.82 383.696H1548.83V387.664H1545.89C1542.81 387.664 1540.38 387.813 1538.59 388.112C1536.8 388.411 1535.52 388.923 1534.75 389.648C1534.02 390.331 1533.66 391.291 1533.66 392.528C1533.66 394.149 1534.22 395.472 1535.33 396.496C1536.43 397.477 1537.97 397.968 1539.93 397.968C1541.51 397.968 1542.9 397.605 1544.09 396.88C1545.29 396.112 1546.23 395.088 1546.91 393.808C1547.63 392.528 1548 391.056 1548 389.392V382.032C1548 379.6 1547.49 377.851 1546.46 376.784C1545.44 375.717 1543.75 375.184 1541.41 375.184C1540.04 375.184 1538.61 375.355 1537.12 375.696C1535.67 376.037 1534.15 376.613 1532.57 377.424C1531.85 377.765 1531.23 377.872 1530.72 377.744C1530.21 377.616 1529.8 377.339 1529.5 376.912C1529.2 376.443 1529.03 375.952 1528.99 375.44C1528.99 374.885 1529.12 374.352 1529.37 373.84C1529.67 373.328 1530.16 372.944 1530.85 372.688C1532.72 371.792 1534.58 371.152 1536.41 370.768C1538.25 370.384 1539.98 370.192 1541.6 370.192C1544.46 370.192 1546.8 370.64 1548.64 371.536C1550.51 372.432 1551.9 373.797 1552.8 375.632C1553.69 377.467 1554.14 379.835 1554.14 382.736V399.184C1554.14 400.208 1553.89 401.019 1553.37 401.616C1552.86 402.171 1552.11 402.448 1551.13 402.448C1550.19 402.448 1549.45 402.171 1548.89 401.616C1548.34 401.019 1548.06 400.208 1548.06 399.184V395.024H1548.64C1548.3 396.603 1547.66 397.968 1546.72 399.12C1545.82 400.229 1544.69 401.083 1543.33 401.68C1541.96 402.277 1540.4 402.576 1538.65 402.576ZM1566.24 402.448C1565.22 402.448 1564.43 402.171 1563.88 401.616C1563.32 401.019 1563.04 400.208 1563.04 399.184V373.584C1563.04 372.517 1563.32 371.707 1563.88 371.152C1564.43 370.597 1565.2 370.32 1566.18 370.32C1567.2 370.32 1567.97 370.597 1568.48 371.152C1569.04 371.707 1569.32 372.517 1569.32 373.584V378.576L1568.61 377.424C1569.55 375.035 1571.02 373.243 1573.03 372.048C1575.03 370.811 1577.34 370.192 1579.94 370.192C1582.41 370.192 1584.46 370.661 1586.08 371.6C1587.75 372.496 1588.99 373.883 1589.8 375.76C1590.61 377.595 1591.01 379.92 1591.01 382.736V399.184C1591.01 400.208 1590.73 401.019 1590.18 401.616C1589.63 402.171 1588.84 402.448 1587.81 402.448C1586.75 402.448 1585.93 402.171 1585.38 401.616C1584.83 401.019 1584.55 400.208 1584.55 399.184V383.12C1584.55 380.432 1584.01 378.469 1582.95 377.232C1581.92 375.995 1580.3 375.376 1578.08 375.376C1575.48 375.376 1573.39 376.187 1571.81 377.808C1570.28 379.429 1569.51 381.605 1569.51 384.336V399.184C1569.51 401.36 1568.42 402.448 1566.24 402.448ZM1614.06 414.096C1611.76 414.096 1609.52 413.861 1607.34 413.392C1605.21 412.923 1603.27 412.155 1601.52 411.088C1600.88 410.747 1600.45 410.32 1600.24 409.808C1600.03 409.339 1599.96 408.848 1600.05 408.336C1600.18 407.824 1600.41 407.376 1600.75 406.992C1601.09 406.608 1601.5 406.352 1601.97 406.224C1602.48 406.096 1603.01 406.181 1603.57 406.48C1605.44 407.504 1607.22 408.187 1608.88 408.528C1610.59 408.912 1612.16 409.104 1613.62 409.104C1616.6 409.104 1618.84 408.336 1620.34 406.8C1621.83 405.307 1622.58 403.088 1622.58 400.144V393.616H1623.15C1622.51 395.963 1621.17 397.819 1619.12 399.184C1617.07 400.549 1614.7 401.232 1612.02 401.232C1609.2 401.232 1606.75 400.592 1604.66 399.312C1602.56 397.989 1600.94 396.176 1599.79 393.872C1598.64 391.525 1598.06 388.795 1598.06 385.68C1598.06 383.333 1598.38 381.221 1599.02 379.344C1599.71 377.467 1600.64 375.845 1601.84 374.48C1603.08 373.115 1604.55 372.069 1606.26 371.344C1608 370.576 1609.92 370.192 1612.02 370.192C1614.75 370.192 1617.11 370.875 1619.12 372.24C1621.17 373.605 1622.49 375.461 1623.09 377.808L1622.45 378.896V373.584C1622.45 372.517 1622.72 371.707 1623.28 371.152C1623.88 370.597 1624.67 370.32 1625.65 370.32C1626.67 370.32 1627.46 370.597 1628.02 371.152C1628.57 371.707 1628.85 372.517 1628.85 373.584V399.376C1628.85 404.24 1627.59 407.909 1625.07 410.384C1622.55 412.859 1618.88 414.096 1614.06 414.096ZM1613.55 396.176C1615.43 396.176 1617.03 395.749 1618.35 394.896C1619.67 394.043 1620.7 392.827 1621.42 391.248C1622.15 389.669 1622.51 387.813 1622.51 385.68C1622.51 382.48 1621.7 379.941 1620.08 378.064C1618.5 376.187 1616.32 375.248 1613.55 375.248C1611.72 375.248 1610.14 375.675 1608.82 376.528C1607.49 377.381 1606.45 378.597 1605.68 380.176C1604.95 381.712 1604.59 383.547 1604.59 385.68C1604.59 388.923 1605.4 391.483 1607.02 393.36C1608.64 395.237 1610.82 396.176 1613.55 396.176ZM1649.06 402.576C1646.54 402.576 1644.43 402.107 1642.72 401.168C1641.06 400.229 1639.8 398.843 1638.94 397.008C1638.13 395.131 1637.73 392.784 1637.73 389.968V373.584C1637.73 372.475 1638 371.664 1638.56 371.152C1639.11 370.597 1639.9 370.32 1640.93 370.32C1641.95 370.32 1642.74 370.597 1643.3 371.152C1643.89 371.664 1644.19 372.475 1644.19 373.584V390.032C1644.19 392.549 1644.7 394.405 1645.73 395.6C1646.75 396.795 1648.37 397.392 1650.59 397.392C1653.02 397.392 1654.99 396.581 1656.48 394.96C1658.02 393.296 1658.78 391.12 1658.78 388.432V373.584C1658.78 372.475 1659.06 371.664 1659.62 371.152C1660.17 370.597 1660.98 370.32 1662.05 370.32C1663.07 370.32 1663.86 370.597 1664.42 371.152C1664.97 371.664 1665.25 372.475 1665.25 373.584V399.184C1665.25 401.36 1664.2 402.448 1662.11 402.448C1661.13 402.448 1660.36 402.171 1659.81 401.616C1659.25 401.019 1658.98 400.208 1658.98 399.184V393.744L1659.81 395.152C1658.95 397.541 1657.59 399.376 1655.71 400.656C1653.83 401.936 1651.62 402.576 1649.06 402.576ZM1684.34 402.576C1682.16 402.576 1680.2 402.149 1678.45 401.296C1676.75 400.443 1675.4 399.291 1674.42 397.84C1673.44 396.389 1672.95 394.747 1672.95 392.912C1672.95 390.608 1673.52 388.795 1674.68 387.472C1675.87 386.107 1677.81 385.147 1680.5 384.592C1683.23 383.995 1686.9 383.696 1691.51 383.696H1694.52V387.664H1691.57C1688.5 387.664 1686.07 387.813 1684.28 388.112C1682.48 388.411 1681.2 388.923 1680.44 389.648C1679.71 390.331 1679.35 391.291 1679.35 392.528C1679.35 394.149 1679.9 395.472 1681.01 396.496C1682.12 397.477 1683.66 397.968 1685.62 397.968C1687.2 397.968 1688.59 397.605 1689.78 396.88C1690.98 396.112 1691.91 395.088 1692.6 393.808C1693.32 392.528 1693.68 391.056 1693.68 389.392V382.032C1693.68 379.6 1693.17 377.851 1692.15 376.784C1691.12 375.717 1689.44 375.184 1687.09 375.184C1685.73 375.184 1684.3 375.355 1682.8 375.696C1681.35 376.037 1679.84 376.613 1678.26 377.424C1677.54 377.765 1676.92 377.872 1676.4 377.744C1675.89 377.616 1675.49 377.339 1675.19 376.912C1674.89 376.443 1674.72 375.952 1674.68 375.44C1674.68 374.885 1674.8 374.352 1675.06 373.84C1675.36 373.328 1675.85 372.944 1676.53 372.688C1678.41 371.792 1680.27 371.152 1682.1 370.768C1683.94 370.384 1685.66 370.192 1687.28 370.192C1690.14 370.192 1692.49 370.64 1694.32 371.536C1696.2 372.432 1697.59 373.797 1698.48 375.632C1699.38 377.467 1699.83 379.835 1699.83 382.736V399.184C1699.83 400.208 1699.57 401.019 1699.06 401.616C1698.55 402.171 1697.8 402.448 1696.82 402.448C1695.88 402.448 1695.14 402.171 1694.58 401.616C1694.03 401.019 1693.75 400.208 1693.75 399.184V395.024H1694.32C1693.98 396.603 1693.34 397.968 1692.4 399.12C1691.51 400.229 1690.38 401.083 1689.01 401.68C1687.65 402.277 1686.09 402.576 1684.34 402.576ZM1722.88 414.096C1720.57 414.096 1718.33 413.861 1716.16 413.392C1714.02 412.923 1712.08 412.155 1710.33 411.088C1709.69 410.747 1709.26 410.32 1709.05 409.808C1708.84 409.339 1708.77 408.848 1708.86 408.336C1708.99 407.824 1709.22 407.376 1709.56 406.992C1709.9 406.608 1710.31 406.352 1710.78 406.224C1711.29 406.096 1711.82 406.181 1712.38 406.48C1714.26 407.504 1716.03 408.187 1717.69 408.528C1719.4 408.912 1720.98 409.104 1722.43 409.104C1725.41 409.104 1727.65 408.336 1729.15 406.8C1730.64 405.307 1731.39 403.088 1731.39 400.144V393.616H1731.96C1731.32 395.963 1729.98 397.819 1727.93 399.184C1725.88 400.549 1723.52 401.232 1720.83 401.232C1718.01 401.232 1715.56 400.592 1713.47 399.312C1711.38 397.989 1709.76 396.176 1708.6 393.872C1707.45 391.525 1706.88 388.795 1706.88 385.68C1706.88 383.333 1707.2 381.221 1707.84 379.344C1708.52 377.467 1709.46 375.845 1710.65 374.48C1711.89 373.115 1713.36 372.069 1715.07 371.344C1716.82 370.576 1718.74 370.192 1720.83 370.192C1723.56 370.192 1725.93 370.875 1727.93 372.24C1729.98 373.605 1731.3 375.461 1731.9 377.808L1731.26 378.896V373.584C1731.26 372.517 1731.54 371.707 1732.09 371.152C1732.69 370.597 1733.48 370.32 1734.46 370.32C1735.48 370.32 1736.27 370.597 1736.83 371.152C1737.38 371.707 1737.66 372.517 1737.66 373.584V399.376C1737.66 404.24 1736.4 407.909 1733.88 410.384C1731.37 412.859 1727.7 414.096 1722.88 414.096ZM1722.36 396.176C1724.24 396.176 1725.84 395.749 1727.16 394.896C1728.49 394.043 1729.51 392.827 1730.24 391.248C1730.96 389.669 1731.32 387.813 1731.32 385.68C1731.32 382.48 1730.51 379.941 1728.89 378.064C1727.31 376.187 1725.14 375.248 1722.36 375.248C1720.53 375.248 1718.95 375.675 1717.63 376.528C1716.3 377.381 1715.26 378.597 1714.49 380.176C1713.77 381.712 1713.4 383.547 1713.4 385.68C1713.4 388.923 1714.21 391.483 1715.84 393.36C1717.46 395.237 1719.63 396.176 1722.36 396.176ZM1761.39 402.576C1757.97 402.576 1755.03 401.936 1752.56 400.656C1750.12 399.333 1748.22 397.477 1746.86 395.088C1745.54 392.656 1744.88 389.776 1744.88 386.448C1744.88 383.205 1745.54 380.368 1746.86 377.936C1748.18 375.504 1750 373.605 1752.3 372.24C1754.6 370.875 1757.23 370.192 1760.17 370.192C1762.35 370.192 1764.29 370.555 1766 371.28C1767.7 371.963 1769.15 372.987 1770.35 374.352C1771.58 375.675 1772.5 377.296 1773.1 379.216C1773.74 381.136 1774.06 383.291 1774.06 385.68C1774.06 386.405 1773.85 386.96 1773.42 387.344C1772.99 387.685 1772.35 387.856 1771.5 387.856H1750V383.888H1769.71L1768.62 384.784C1768.62 382.651 1768.3 380.837 1767.66 379.344C1767.06 377.851 1766.14 376.72 1764.91 375.952C1763.71 375.141 1762.22 374.736 1760.43 374.736C1758.42 374.736 1756.72 375.205 1755.31 376.144C1753.94 377.083 1752.9 378.384 1752.17 380.048C1751.45 381.712 1751.08 383.653 1751.08 385.872V386.256C1751.08 390.011 1751.96 392.848 1753.71 394.768C1755.5 396.645 1758.08 397.584 1761.45 397.584C1762.73 397.584 1764.08 397.413 1765.48 397.072C1766.93 396.731 1768.3 396.155 1769.58 395.344C1770.3 394.917 1770.94 394.725 1771.5 394.768C1772.1 394.811 1772.57 395.003 1772.91 395.344C1773.29 395.685 1773.53 396.112 1773.61 396.624C1773.7 397.136 1773.61 397.669 1773.36 398.224C1773.1 398.736 1772.65 399.205 1772.01 399.632C1770.56 400.613 1768.88 401.36 1766.96 401.872C1765.04 402.341 1763.18 402.576 1761.39 402.576Z" fill="black"/>
<g clip-path="url(#clip1_2007_2)">
<mask id="path-2-inside-1_2007_2" fill="white">
<path d="M0 0H960V540H0V0Z"/>
</mask>
<rect x="480" y="540" width="480" height="540" transform="rotate(180 480 540)" fill="url(#paint0_linear_2007_2)"/>
<rect x="960" y="540" width="480" height="540" transform="rotate(180 960 540)" fill="url(#paint1_linear_2007_2)"/>
<path d="M537.955 308.303C522.093 338.975 476.881 334.611 467.191 301.473L456.413 264.615C455.888 262.818 453.436 262.581 452.576 264.245L425.171 317.236C430.562 306.811 414.086 252.306 422.045 230.697C437.907 200.026 483.119 204.389 492.809 237.527L503.587 274.385C504.112 276.182 506.564 276.419 507.425 274.755L534.829 221.764C529.438 232.189 545.915 286.694 537.955 308.303Z" fill="url(#paint2_linear_2007_2)"/>
<path d="M572.623 241.267L537.955 308.303C545.915 286.694 529.438 232.189 534.829 221.764C540.22 211.339 553.051 207.254 563.488 212.639C573.925 218.025 578.014 230.842 572.623 241.267Z" fill="url(#paint3_linear_2007_2)"/>
<path d="M387.377 297.733L422.045 230.697C414.086 252.306 430.562 306.811 425.171 317.236C419.78 327.661 406.949 331.746 396.512 326.361C386.075 320.975 381.986 308.158 387.377 297.733Z" fill="url(#paint4_linear_2007_2)"/>
</g>
<path d="M959 0V540H961V0H959Z" fill="#BEBEBE" mask="url(#path-2-inside-1_2007_2)"/>
</g>
<defs>
<linearGradient id="paint0_linear_2007_2" x1="698.87" y1="501.395" x2="807.677" y2="1114.17" gradientUnits="userSpaceOnUse">
<stop stop-color="#3164E6"/>
<stop offset="1" stop-color="#86FFAF"/>
</linearGradient>
<linearGradient id="paint1_linear_2007_2" x1="1149" y1="597.807" x2="1322.91" y2="1006.53" gradientUnits="userSpaceOnUse">
<stop stop-color="#86FFAF"/>
<stop offset="1" stop-color="#3164E6"/>
</linearGradient>
<linearGradient id="paint2_linear_2007_2" x1="471.636" y1="201.493" x2="485.273" y2="339.44" gradientUnits="userSpaceOnUse">
<stop stop-color="#3164E6"/>
<stop offset="1" stop-color="#86FFAF"/>
</linearGradient>
<linearGradient id="paint3_linear_2007_2" x1="459.814" y1="222.739" x2="483.674" y2="323.463" gradientUnits="userSpaceOnUse">
<stop stop-color="#86FFAF"/>
<stop offset="1" stop-color="#3164E6"/>
</linearGradient>
<linearGradient id="paint4_linear_2007_2" x1="459.814" y1="222.739" x2="483.674" y2="323.463" gradientUnits="userSpaceOnUse">
<stop stop-color="#86FFAF"/>
<stop offset="1" stop-color="#3164E6"/>
</linearGradient>
<clipPath id="clip0_2007_2">
<rect width="1920" height="540" fill="white"/>
</clipPath>
<clipPath id="clip1_2007_2">
<path d="M0 0H960V540H0V0Z" fill="white"/>
</clipPath>
</defs>
</svg>
