<svg width="1124" height="360" viewBox="0 0 1124 360" fill="none" xmlns="http://www.w3.org/2000/svg">
<mask id="path-1-inside-1_4001_43" fill="white">
</mask>
<path d="M0 0H1124V360H0V0Z" fill="#333A42"/>
<path d="M0 1H1124V-1H0V1Z" fill="#BEBEBE" mask="url(#path-1-inside-1_4001_43)"/>
<path d="M472.955 219.303C457.093 249.975 411.881 245.611 402.191 212.473L391.413 175.615C390.888 173.818 388.436 173.581 387.575 175.245L360.171 228.236C365.562 217.811 349.085 163.306 357.045 141.697C372.907 111.026 418.119 115.389 427.809 148.527L438.587 185.385C439.112 187.182 441.564 187.419 442.424 185.755L469.829 132.764C464.438 143.189 480.914 197.694 472.955 219.303Z" fill="#B3B3B3"/>
<path d="M507.623 152.267L472.955 219.303C480.915 197.694 464.438 143.189 469.829 132.764C475.22 122.339 488.051 118.254 498.488 123.639C508.925 129.024 513.014 141.841 507.623 152.267Z" fill="#757575"/>
<path d="M322.377 208.733L357.045 141.697C349.086 163.306 365.562 217.811 360.171 228.236C354.78 238.661 341.949 242.746 331.512 237.361C321.075 231.975 316.986 219.158 322.377 208.733Z" fill="#757575"/>
<path d="M544.488 223.896C542.44 223.896 540.861 223.341 539.752 222.232C538.643 221.037 538.088 219.416 538.088 217.368V166.168C538.088 164.035 538.643 162.413 539.752 161.304C540.861 160.195 542.397 159.64 544.36 159.64C546.408 159.64 547.944 160.195 548.968 161.304C550.077 162.413 550.632 164.035 550.632 166.168V176.152L549.224 173.848C551.101 169.069 554.045 165.485 558.056 163.096C562.067 160.621 566.675 159.384 571.88 159.384C576.829 159.384 580.925 160.323 584.168 162.2C587.496 163.992 589.971 166.765 591.592 170.52C593.213 174.189 594.024 178.84 594.024 184.472V217.368C594.024 219.416 593.469 221.037 592.36 222.232C591.251 223.341 589.672 223.896 587.624 223.896C585.491 223.896 583.869 223.341 582.76 222.232C581.651 221.037 581.096 219.416 581.096 217.368V185.24C581.096 179.864 580.029 175.939 577.896 173.464C575.848 170.989 572.605 169.752 568.168 169.752C562.963 169.752 558.781 171.373 555.624 174.616C552.552 177.859 551.016 182.211 551.016 187.672V217.368C551.016 221.72 548.84 223.896 544.488 223.896ZM641.15 224.152C634.323 224.152 628.435 222.872 623.486 220.312C618.622 217.667 614.825 213.955 612.094 209.176C609.449 204.312 608.126 198.552 608.126 191.896C608.126 185.411 609.449 179.736 612.094 174.872C614.739 170.008 618.366 166.211 622.974 163.48C627.582 160.749 632.83 159.384 638.718 159.384C643.07 159.384 646.953 160.109 650.366 161.56C653.779 162.925 656.681 164.973 659.07 167.704C661.545 170.349 663.379 173.592 664.574 177.432C665.854 181.272 666.494 185.581 666.494 190.36C666.494 191.811 666.067 192.92 665.214 193.688C664.361 194.371 663.081 194.712 661.374 194.712H618.366V186.776H657.79L655.614 188.568C655.614 184.301 654.974 180.675 653.694 177.688C652.499 174.701 650.665 172.44 648.19 170.904C645.801 169.283 642.814 168.472 639.23 168.472C635.219 168.472 631.806 169.411 628.99 171.288C626.259 173.165 624.169 175.768 622.718 179.096C621.267 182.424 620.542 186.307 620.542 190.744V191.512C620.542 199.021 622.291 204.696 625.79 208.536C629.374 212.291 634.537 214.168 641.278 214.168C643.838 214.168 646.526 213.827 649.342 213.144C652.243 212.461 654.974 211.309 657.534 209.688C658.985 208.835 660.265 208.451 661.374 208.536C662.569 208.621 663.507 209.005 664.19 209.688C664.958 210.371 665.427 211.224 665.598 212.248C665.769 213.272 665.598 214.339 665.086 215.448C664.574 216.472 663.678 217.411 662.398 218.264C659.497 220.227 656.126 221.72 652.286 222.744C648.446 223.683 644.734 224.152 641.15 224.152ZM703.905 223.896C702.113 223.896 700.534 223.427 699.169 222.488C697.889 221.549 696.822 220.099 695.969 218.136L674.593 168.472C673.91 166.936 673.654 165.485 673.825 164.12C673.996 162.755 674.636 161.688 675.745 160.92C676.854 160.067 678.348 159.64 680.225 159.64C681.846 159.64 683.126 160.024 684.065 160.792C685.004 161.56 685.857 162.883 686.625 164.76L705.953 212.376H702.369L722.081 164.76C722.849 162.883 723.702 161.56 724.641 160.792C725.665 160.024 727.073 159.64 728.865 159.64C730.401 159.64 731.596 160.067 732.449 160.92C733.388 161.688 733.942 162.755 734.113 164.12C734.369 165.4 734.156 166.808 733.473 168.344L711.841 218.136C711.073 220.099 710.006 221.549 708.641 222.488C707.276 223.427 705.697 223.896 703.905 223.896ZM764.931 224.152C760.579 224.152 756.654 223.299 753.155 221.592C749.742 219.885 747.054 217.581 745.091 214.68C743.128 211.779 742.147 208.493 742.147 204.824C742.147 200.216 743.299 196.589 745.603 193.944C747.992 191.213 751.875 189.293 757.251 188.184C762.712 186.989 770.051 186.392 779.267 186.392H785.283V194.328H779.395C773.251 194.328 768.387 194.627 764.803 195.224C761.219 195.821 758.659 196.845 757.123 198.296C755.672 199.661 754.947 201.581 754.947 204.056C754.947 207.299 756.056 209.944 758.275 211.992C760.494 213.955 763.566 214.936 767.491 214.936C770.648 214.936 773.422 214.211 775.811 212.76C778.2 211.224 780.078 209.176 781.443 206.616C782.894 204.056 783.619 201.112 783.619 197.784V183.064C783.619 178.2 782.595 174.701 780.547 172.568C778.499 170.435 775.128 169.368 770.435 169.368C767.704 169.368 764.846 169.709 761.859 170.392C758.958 171.075 755.928 172.227 752.771 173.848C751.32 174.531 750.083 174.744 749.059 174.488C748.035 174.232 747.224 173.677 746.627 172.824C746.03 171.885 745.688 170.904 745.603 169.88C745.603 168.771 745.859 167.704 746.371 166.68C746.968 165.656 747.95 164.888 749.315 164.376C753.07 162.584 756.782 161.304 760.451 160.536C764.12 159.768 767.576 159.384 770.819 159.384C776.536 159.384 781.23 160.28 784.899 162.072C788.654 163.864 791.427 166.595 793.219 170.264C795.011 173.933 795.907 178.669 795.907 184.472V217.368C795.907 219.416 795.395 221.037 794.371 222.232C793.347 223.341 791.854 223.896 789.891 223.896C788.014 223.896 786.52 223.341 785.411 222.232C784.302 221.037 783.747 219.416 783.747 217.368V209.048H784.899C784.216 212.205 782.936 214.936 781.059 217.24C779.267 219.459 777.006 221.165 774.275 222.36C771.544 223.555 768.43 224.152 764.931 224.152Z" fill="white"/>
<path d="M472.955 219.303C457.093 249.975 411.881 245.611 402.191 212.473L391.413 175.615C390.888 173.818 388.436 173.581 387.575 175.245L360.171 228.236C365.562 217.811 349.085 163.306 357.045 141.697C372.907 111.026 418.119 115.389 427.809 148.527L438.587 185.385C439.112 187.182 441.564 187.419 442.424 185.755L469.829 132.764C464.438 143.189 480.914 197.694 472.955 219.303Z" fill="#20BA95"/>
<path d="M507.623 152.267L472.955 219.303C480.915 197.694 464.438 143.189 469.829 132.764C475.22 122.339 488.051 118.254 498.488 123.639C508.925 129.024 513.014 141.841 507.623 152.267Z" fill="#1B6FBC"/>
<path d="M322.377 208.733L357.045 141.697C349.086 163.306 365.562 217.811 360.171 228.236C354.78 238.661 341.949 242.746 331.512 237.361C321.075 231.975 316.986 219.158 322.377 208.733Z" fill="#1B6FBC"/>
<path d="M507.623 152.267L472.955 219.303C480.915 197.694 464.438 143.189 469.829 132.764C475.22 122.339 488.051 118.254 498.488 123.639C508.925 129.024 513.014 141.841 507.623 152.267Z" fill="#1B6FBC"/>
<path d="M322.377 208.733L357.045 141.697C349.086 163.306 365.562 217.811 360.171 228.236C354.78 238.661 341.949 242.746 331.512 237.361C321.075 231.975 316.986 219.158 322.377 208.733Z" fill="#1B6FBC"/>
</svg>
