<svg width="1500" height="540" viewBox="0 0 1500 540" fill="none" xmlns="http://www.w3.org/2000/svg">
<g clip-path="url(#clip0_2008_225)">
<rect width="1500" height="540" fill="white"/>
<path d="M693.488 271.896C691.44 271.896 689.861 271.341 688.752 270.232C687.643 269.037 687.088 267.416 687.088 265.368V214.168C687.088 212.035 687.643 210.413 688.752 209.304C689.861 208.195 691.397 207.64 693.36 207.64C695.408 207.64 696.944 208.195 697.968 209.304C699.077 210.413 699.632 212.035 699.632 214.168V224.152L698.224 221.848C700.101 217.069 703.045 213.485 707.056 211.096C711.067 208.621 715.675 207.384 720.88 207.384C725.829 207.384 729.925 208.323 733.168 210.2C736.496 211.992 738.971 214.765 740.592 218.52C742.213 222.189 743.024 226.84 743.024 232.472V265.368C743.024 267.416 742.469 269.037 741.36 270.232C740.251 271.341 738.672 271.896 736.624 271.896C734.491 271.896 732.869 271.341 731.76 270.232C730.651 269.037 730.096 267.416 730.096 265.368V233.24C730.096 227.864 729.029 223.939 726.896 221.464C724.848 218.989 721.605 217.752 717.168 217.752C711.963 217.752 707.781 219.373 704.624 222.616C701.552 225.859 700.016 230.211 700.016 235.672V265.368C700.016 269.72 697.84 271.896 693.488 271.896ZM790.15 272.152C783.323 272.152 777.435 270.872 772.486 268.312C767.622 265.667 763.825 261.955 761.094 257.176C758.449 252.312 757.126 246.552 757.126 239.896C757.126 233.411 758.449 227.736 761.094 222.872C763.739 218.008 767.366 214.211 771.974 211.48C776.582 208.749 781.83 207.384 787.718 207.384C792.07 207.384 795.953 208.109 799.366 209.56C802.779 210.925 805.681 212.973 808.07 215.704C810.545 218.349 812.379 221.592 813.574 225.432C814.854 229.272 815.494 233.581 815.494 238.36C815.494 239.811 815.067 240.92 814.214 241.688C813.361 242.371 812.081 242.712 810.374 242.712H767.366V234.776H806.79L804.614 236.568C804.614 232.301 803.974 228.675 802.694 225.688C801.499 222.701 799.665 220.44 797.19 218.904C794.801 217.283 791.814 216.472 788.23 216.472C784.219 216.472 780.806 217.411 777.99 219.288C775.259 221.165 773.169 223.768 771.718 227.096C770.267 230.424 769.542 234.307 769.542 238.744V239.512C769.542 247.021 771.291 252.696 774.79 256.536C778.374 260.291 783.537 262.168 790.278 262.168C792.838 262.168 795.526 261.827 798.342 261.144C801.243 260.461 803.974 259.309 806.534 257.688C807.985 256.835 809.265 256.451 810.374 256.536C811.569 256.621 812.507 257.005 813.19 257.688C813.958 258.371 814.427 259.224 814.598 260.248C814.769 261.272 814.598 262.339 814.086 263.448C813.574 264.472 812.678 265.411 811.398 266.264C808.497 268.227 805.126 269.72 801.286 270.744C797.446 271.683 793.734 272.152 790.15 272.152ZM852.905 271.896C851.113 271.896 849.534 271.427 848.169 270.488C846.889 269.549 845.822 268.099 844.969 266.136L823.593 216.472C822.91 214.936 822.654 213.485 822.825 212.12C822.996 210.755 823.636 209.688 824.745 208.92C825.854 208.067 827.348 207.64 829.225 207.64C830.846 207.64 832.126 208.024 833.065 208.792C834.004 209.56 834.857 210.883 835.625 212.76L854.953 260.376H851.369L871.081 212.76C871.849 210.883 872.702 209.56 873.641 208.792C874.665 208.024 876.073 207.64 877.865 207.64C879.401 207.64 880.596 208.067 881.449 208.92C882.388 209.688 882.942 210.755 883.113 212.12C883.369 213.4 883.156 214.808 882.473 216.344L860.841 266.136C860.073 268.099 859.006 269.549 857.641 270.488C856.276 271.427 854.697 271.896 852.905 271.896ZM913.931 272.152C909.579 272.152 905.654 271.299 902.155 269.592C898.742 267.885 896.054 265.581 894.091 262.68C892.128 259.779 891.147 256.493 891.147 252.824C891.147 248.216 892.299 244.589 894.603 241.944C896.992 239.213 900.875 237.293 906.251 236.184C911.712 234.989 919.051 234.392 928.267 234.392H934.283V242.328H928.395C922.251 242.328 917.387 242.627 913.803 243.224C910.219 243.821 907.659 244.845 906.123 246.296C904.672 247.661 903.947 249.581 903.947 252.056C903.947 255.299 905.056 257.944 907.275 259.992C909.494 261.955 912.566 262.936 916.491 262.936C919.648 262.936 922.422 262.211 924.811 260.76C927.2 259.224 929.078 257.176 930.443 254.616C931.894 252.056 932.619 249.112 932.619 245.784V231.064C932.619 226.2 931.595 222.701 929.547 220.568C927.499 218.435 924.128 217.368 919.435 217.368C916.704 217.368 913.846 217.709 910.859 218.392C907.958 219.075 904.928 220.227 901.771 221.848C900.32 222.531 899.083 222.744 898.059 222.488C897.035 222.232 896.224 221.677 895.627 220.824C895.03 219.885 894.688 218.904 894.603 217.88C894.603 216.771 894.859 215.704 895.371 214.68C895.968 213.656 896.95 212.888 898.315 212.376C902.07 210.584 905.782 209.304 909.451 208.536C913.12 207.768 916.576 207.384 919.819 207.384C925.536 207.384 930.23 208.28 933.899 210.072C937.654 211.864 940.427 214.595 942.219 218.264C944.011 221.933 944.907 226.669 944.907 232.472V265.368C944.907 267.416 944.395 269.037 943.371 270.232C942.347 271.341 940.854 271.896 938.891 271.896C937.014 271.896 935.52 271.341 934.411 270.232C933.302 269.037 932.747 267.416 932.747 265.368V257.048H933.899C933.216 260.205 931.936 262.936 930.059 265.24C928.267 267.459 926.006 269.165 923.275 270.36C920.544 271.555 917.43 272.152 913.931 272.152ZM685.744 369.968C684.72 369.968 683.931 369.691 683.376 369.136C682.821 368.581 682.544 367.771 682.544 366.704V329.584C682.544 328.517 682.821 327.707 683.376 327.152C683.931 326.597 684.699 326.32 685.68 326.32C686.704 326.32 687.493 326.597 688.048 327.152C688.603 327.707 688.88 328.517 688.88 329.584V335.152L688.176 333.808C688.859 331.504 690.203 329.669 692.208 328.304C694.213 326.896 696.581 326.192 699.312 326.192C702.085 326.192 704.496 326.853 706.544 328.176C708.635 329.499 710.235 331.355 711.344 333.744C712.496 336.133 713.072 339.013 713.072 342.384C713.072 345.669 712.496 348.549 711.344 351.024C710.235 353.456 708.656 355.333 706.608 356.656C704.56 357.936 702.128 358.576 699.312 358.576C696.624 358.576 694.277 357.893 692.272 356.528C690.267 355.163 688.923 353.349 688.24 351.088H689.008V366.704C689.008 367.771 688.709 368.581 688.112 369.136C687.557 369.691 686.768 369.968 685.744 369.968ZM697.712 353.584C699.504 353.584 701.061 353.157 702.384 352.304C703.707 351.451 704.731 350.192 705.456 348.528C706.181 346.864 706.544 344.816 706.544 342.384C706.544 338.715 705.733 335.941 704.112 334.064C702.533 332.187 700.4 331.248 697.712 331.248C695.963 331.248 694.405 331.675 693.04 332.528C691.717 333.339 690.693 334.576 689.968 336.24C689.243 337.904 688.88 339.952 688.88 342.384C688.88 346.011 689.691 348.784 691.312 350.704C692.933 352.624 695.067 353.584 697.712 353.584ZM723.621 358.448C722.554 358.448 721.743 358.171 721.189 357.616C720.634 357.019 720.357 356.208 720.357 355.184V329.584C720.357 328.517 720.634 327.707 721.189 327.152C721.743 326.597 722.511 326.32 723.493 326.32C724.517 326.32 725.285 326.597 725.797 327.152C726.351 327.707 726.629 328.517 726.629 329.584V334.256H725.989C726.671 331.696 727.93 329.755 729.765 328.432C731.599 327.109 733.946 326.341 736.805 326.128C737.573 326.085 738.17 326.277 738.597 326.704C739.066 327.131 739.322 327.792 739.365 328.688C739.45 329.584 739.258 330.309 738.789 330.864C738.319 331.376 737.594 331.675 736.613 331.76L735.397 331.888C732.623 332.144 730.511 333.019 729.061 334.512C727.61 336.005 726.885 338.053 726.885 340.656V355.184C726.885 356.208 726.607 357.019 726.053 357.616C725.541 358.171 724.73 358.448 723.621 358.448ZM757.362 358.576C754.205 358.576 751.474 357.915 749.17 356.592C746.909 355.269 745.138 353.392 743.858 350.96C742.578 348.528 741.938 345.669 741.938 342.384C741.938 339.867 742.301 337.627 743.026 335.664C743.751 333.701 744.775 332.016 746.098 330.608C747.463 329.157 749.085 328.069 750.962 327.344C752.882 326.576 755.015 326.192 757.362 326.192C760.477 326.192 763.165 326.853 765.426 328.176C767.73 329.499 769.522 331.376 770.802 333.808C772.082 336.197 772.722 339.056 772.722 342.384C772.722 344.859 772.359 347.099 771.634 349.104C770.909 351.109 769.863 352.816 768.498 354.224C767.175 355.632 765.554 356.72 763.634 357.488C761.757 358.213 759.666 358.576 757.362 358.576ZM757.362 353.584C759.111 353.584 760.647 353.157 761.97 352.304C763.293 351.451 764.317 350.192 765.042 348.528C765.81 346.864 766.194 344.816 766.194 342.384C766.194 338.715 765.383 335.941 763.762 334.064C762.141 332.187 760.007 331.248 757.362 331.248C755.57 331.248 754.013 331.675 752.69 332.528C751.367 333.339 750.322 334.576 749.554 336.24C748.829 337.904 748.466 339.952 748.466 342.384C748.466 346.011 749.277 348.784 750.898 350.704C752.519 352.624 754.674 353.584 757.362 353.584ZM794.126 370.096C791.822 370.096 789.582 369.861 787.406 369.392C785.272 368.923 783.331 368.155 781.582 367.088C780.942 366.747 780.515 366.32 780.302 365.808C780.088 365.339 780.024 364.848 780.11 364.336C780.238 363.824 780.472 363.376 780.814 362.992C781.155 362.608 781.56 362.352 782.03 362.224C782.542 362.096 783.075 362.181 783.63 362.48C785.507 363.504 787.278 364.187 788.942 364.528C790.648 364.912 792.227 365.104 793.678 365.104C796.664 365.104 798.904 364.336 800.398 362.8C801.891 361.307 802.638 359.088 802.638 356.144V349.616H803.214C802.574 351.963 801.23 353.819 799.182 355.184C797.134 356.549 794.766 357.232 792.078 357.232C789.262 357.232 786.808 356.592 784.718 355.312C782.627 353.989 781.006 352.176 779.854 349.872C778.702 347.525 778.126 344.795 778.126 341.68C778.126 339.333 778.446 337.221 779.086 335.344C779.768 333.467 780.707 331.845 781.902 330.48C783.139 329.115 784.611 328.069 786.318 327.344C788.067 326.576 789.987 326.192 792.078 326.192C794.808 326.192 797.176 326.875 799.182 328.24C801.23 329.605 802.552 331.461 803.15 333.808L802.51 334.896V329.584C802.51 328.517 802.787 327.707 803.342 327.152C803.939 326.597 804.728 326.32 805.71 326.32C806.734 326.32 807.523 326.597 808.078 327.152C808.632 327.707 808.91 328.517 808.91 329.584V355.376C808.91 360.24 807.651 363.909 805.134 366.384C802.616 368.859 798.947 370.096 794.126 370.096ZM793.614 352.176C795.491 352.176 797.091 351.749 798.414 350.896C799.736 350.043 800.76 348.827 801.486 347.248C802.211 345.669 802.574 343.813 802.574 341.68C802.574 338.48 801.763 335.941 800.142 334.064C798.563 332.187 796.387 331.248 793.614 331.248C791.779 331.248 790.2 331.675 788.878 332.528C787.555 333.381 786.51 334.597 785.742 336.176C785.016 337.712 784.654 339.547 784.654 341.68C784.654 344.923 785.464 347.483 787.086 349.36C788.707 351.237 790.883 352.176 793.614 352.176ZM821.246 358.448C820.179 358.448 819.368 358.171 818.814 357.616C818.259 357.019 817.982 356.208 817.982 355.184V329.584C817.982 328.517 818.259 327.707 818.814 327.152C819.368 326.597 820.136 326.32 821.118 326.32C822.142 326.32 822.91 326.597 823.422 327.152C823.976 327.707 824.254 328.517 824.254 329.584V334.256H823.614C824.296 331.696 825.555 329.755 827.39 328.432C829.224 327.109 831.571 326.341 834.43 326.128C835.198 326.085 835.795 326.277 836.222 326.704C836.691 327.131 836.947 327.792 836.99 328.688C837.075 329.584 836.883 330.309 836.414 330.864C835.944 331.376 835.219 331.675 834.238 331.76L833.022 331.888C830.248 332.144 828.136 333.019 826.686 334.512C825.235 336.005 824.51 338.053 824.51 340.656V355.184C824.51 356.208 824.232 357.019 823.678 357.616C823.166 358.171 822.355 358.448 821.246 358.448ZM851.528 358.576C849.352 358.576 847.389 358.149 845.64 357.296C843.933 356.443 842.589 355.291 841.608 353.84C840.627 352.389 840.136 350.747 840.136 348.912C840.136 346.608 840.712 344.795 841.864 343.472C843.059 342.107 845 341.147 847.688 340.592C850.419 339.995 854.088 339.696 858.696 339.696H861.704V343.664H858.76C855.688 343.664 853.256 343.813 851.464 344.112C849.672 344.411 848.392 344.923 847.624 345.648C846.899 346.331 846.536 347.291 846.536 348.528C846.536 350.149 847.091 351.472 848.2 352.496C849.309 353.477 850.845 353.968 852.808 353.968C854.387 353.968 855.773 353.605 856.968 352.88C858.163 352.112 859.101 351.088 859.784 349.808C860.509 348.528 860.872 347.056 860.872 345.392V338.032C860.872 335.6 860.36 333.851 859.336 332.784C858.312 331.717 856.627 331.184 854.28 331.184C852.915 331.184 851.485 331.355 849.992 331.696C848.541 332.037 847.027 332.613 845.448 333.424C844.723 333.765 844.104 333.872 843.592 333.744C843.08 333.616 842.675 333.339 842.376 332.912C842.077 332.443 841.907 331.952 841.864 331.44C841.864 330.885 841.992 330.352 842.248 329.84C842.547 329.328 843.037 328.944 843.72 328.688C845.597 327.792 847.453 327.152 849.288 326.768C851.123 326.384 852.851 326.192 854.472 326.192C857.331 326.192 859.677 326.64 861.512 327.536C863.389 328.432 864.776 329.797 865.672 331.632C866.568 333.467 867.016 335.835 867.016 338.736V355.184C867.016 356.208 866.76 357.019 866.248 357.616C865.736 358.171 864.989 358.448 864.008 358.448C863.069 358.448 862.323 358.171 861.768 357.616C861.213 357.019 860.936 356.208 860.936 355.184V351.024H861.512C861.171 352.603 860.531 353.968 859.592 355.12C858.696 356.229 857.565 357.083 856.2 357.68C854.835 358.277 853.277 358.576 851.528 358.576ZM879.247 358.448C878.223 358.448 877.434 358.171 876.879 357.616C876.324 357.019 876.047 356.208 876.047 355.184V329.584C876.047 328.517 876.324 327.707 876.879 327.152C877.434 326.597 878.202 326.32 879.183 326.32C880.207 326.32 880.975 326.597 881.487 327.152C882.042 327.707 882.319 328.517 882.319 329.584V334.832L881.615 333.424C882.468 331.163 883.791 329.392 885.583 328.112C887.375 326.832 889.53 326.192 892.047 326.192C894.65 326.192 896.762 326.811 898.383 328.048C900.004 329.285 901.114 331.184 901.711 333.744H900.815C901.626 331.397 903.012 329.563 904.975 328.24C906.938 326.875 909.22 326.192 911.823 326.192C914.212 326.192 916.175 326.661 917.711 327.6C919.247 328.496 920.399 329.883 921.167 331.76C921.935 333.595 922.319 335.92 922.319 338.736V355.184C922.319 356.208 922.02 357.019 921.423 357.616C920.868 358.171 920.079 358.448 919.055 358.448C918.031 358.448 917.242 358.171 916.687 357.616C916.132 357.019 915.855 356.208 915.855 355.184V339.056C915.855 336.411 915.386 334.469 914.447 333.232C913.551 331.995 912.058 331.376 909.967 331.376C907.62 331.376 905.764 332.187 904.399 333.808C903.034 335.429 902.351 337.669 902.351 340.528V355.184C902.351 356.208 902.074 357.019 901.519 357.616C900.964 358.171 900.175 358.448 899.151 358.448C898.127 358.448 897.316 358.171 896.719 357.616C896.164 357.019 895.887 356.208 895.887 355.184V339.056C895.887 336.411 895.439 334.469 894.543 333.232C893.647 331.995 892.154 331.376 890.063 331.376C887.716 331.376 885.86 332.187 884.495 333.808C883.172 335.429 882.511 337.669 882.511 340.528V355.184C882.511 357.36 881.423 358.448 879.247 358.448ZM934.685 358.448C933.661 358.448 932.871 358.171 932.317 357.616C931.762 357.019 931.485 356.208 931.485 355.184V329.584C931.485 328.517 931.762 327.707 932.317 327.152C932.871 326.597 933.639 326.32 934.621 326.32C935.645 326.32 936.413 326.597 936.925 327.152C937.479 327.707 937.757 328.517 937.757 329.584V334.832L937.053 333.424C937.906 331.163 939.229 329.392 941.021 328.112C942.813 326.832 944.967 326.192 947.485 326.192C950.087 326.192 952.199 326.811 953.821 328.048C955.442 329.285 956.551 331.184 957.149 333.744H956.253C957.063 331.397 958.45 329.563 960.413 328.24C962.375 326.875 964.658 326.192 967.261 326.192C969.65 326.192 971.613 326.661 973.149 327.6C974.685 328.496 975.837 329.883 976.605 331.76C977.373 333.595 977.757 335.92 977.757 338.736V355.184C977.757 356.208 977.458 357.019 976.861 357.616C976.306 358.171 975.517 358.448 974.493 358.448C973.469 358.448 972.679 358.171 972.125 357.616C971.57 357.019 971.293 356.208 971.293 355.184V339.056C971.293 336.411 970.823 334.469 969.885 333.232C968.989 331.995 967.495 331.376 965.405 331.376C963.058 331.376 961.202 332.187 959.837 333.808C958.471 335.429 957.789 337.669 957.789 340.528V355.184C957.789 356.208 957.511 357.019 956.957 357.616C956.402 358.171 955.613 358.448 954.589 358.448C953.565 358.448 952.754 358.171 952.157 357.616C951.602 357.019 951.325 356.208 951.325 355.184V339.056C951.325 336.411 950.877 334.469 949.981 333.232C949.085 331.995 947.591 331.376 945.501 331.376C943.154 331.376 941.298 332.187 939.933 333.808C938.61 335.429 937.949 337.669 937.949 340.528V355.184C937.949 357.36 936.861 358.448 934.685 358.448ZM989.994 358.384C988.97 358.384 988.181 358.085 987.626 357.488C987.071 356.848 986.794 355.973 986.794 354.864V329.904C986.794 328.795 987.071 327.941 987.626 327.344C988.181 326.747 988.97 326.448 989.994 326.448C991.018 326.448 991.807 326.747 992.362 327.344C992.959 327.941 993.258 328.795 993.258 329.904V354.864C993.258 355.973 992.981 356.848 992.426 357.488C991.871 358.085 991.061 358.384 989.994 358.384ZM989.994 319.792C988.714 319.792 987.711 319.472 986.986 318.832C986.303 318.192 985.962 317.296 985.962 316.144C985.962 314.949 986.303 314.053 986.986 313.456C987.711 312.816 988.714 312.496 989.994 312.496C991.274 312.496 992.255 312.816 992.938 313.456C993.663 314.053 994.026 314.949 994.026 316.144C994.026 317.296 993.663 318.192 992.938 318.832C992.255 319.472 991.274 319.792 989.994 319.792ZM1005.56 358.448C1004.53 358.448 1003.74 358.171 1003.19 357.616C1002.63 357.019 1002.36 356.208 1002.36 355.184V329.584C1002.36 328.517 1002.63 327.707 1003.19 327.152C1003.74 326.597 1004.51 326.32 1005.49 326.32C1006.52 326.32 1007.28 326.597 1007.8 327.152C1008.35 327.707 1008.63 328.517 1008.63 329.584V334.576L1007.92 333.424C1008.86 331.035 1010.34 329.243 1012.34 328.048C1014.35 326.811 1016.65 326.192 1019.25 326.192C1021.73 326.192 1023.78 326.661 1025.4 327.6C1027.06 328.496 1028.3 329.883 1029.11 331.76C1029.92 333.595 1030.32 335.92 1030.32 338.736V355.184C1030.32 356.208 1030.05 357.019 1029.49 357.616C1028.94 358.171 1028.15 358.448 1027.12 358.448C1026.06 358.448 1025.25 358.171 1024.69 357.616C1024.14 357.019 1023.86 356.208 1023.86 355.184V339.12C1023.86 336.432 1023.33 334.469 1022.26 333.232C1021.24 331.995 1019.62 331.376 1017.4 331.376C1014.79 331.376 1012.7 332.187 1011.12 333.808C1009.59 335.429 1008.82 337.605 1008.82 340.336V355.184C1008.82 357.36 1007.73 358.448 1005.56 358.448ZM1053.38 370.096C1051.07 370.096 1048.83 369.861 1046.66 369.392C1044.52 368.923 1042.58 368.155 1040.83 367.088C1040.19 366.747 1039.76 366.32 1039.55 365.808C1039.34 365.339 1039.27 364.848 1039.36 364.336C1039.49 363.824 1039.72 363.376 1040.06 362.992C1040.4 362.608 1040.81 362.352 1041.28 362.224C1041.79 362.096 1042.32 362.181 1042.88 362.48C1044.76 363.504 1046.53 364.187 1048.19 364.528C1049.9 364.912 1051.48 365.104 1052.93 365.104C1055.91 365.104 1058.15 364.336 1059.65 362.8C1061.14 361.307 1061.89 359.088 1061.89 356.144V349.616H1062.46C1061.82 351.963 1060.48 353.819 1058.43 355.184C1056.38 356.549 1054.02 357.232 1051.33 357.232C1048.51 357.232 1046.06 356.592 1043.97 355.312C1041.88 353.989 1040.26 352.176 1039.1 349.872C1037.95 347.525 1037.38 344.795 1037.38 341.68C1037.38 339.333 1037.7 337.221 1038.34 335.344C1039.02 333.467 1039.96 331.845 1041.15 330.48C1042.39 329.115 1043.86 328.069 1045.57 327.344C1047.32 326.576 1049.24 326.192 1051.33 326.192C1054.06 326.192 1056.43 326.875 1058.43 328.24C1060.48 329.605 1061.8 331.461 1062.4 333.808L1061.76 334.896V329.584C1061.76 328.517 1062.04 327.707 1062.59 327.152C1063.19 326.597 1063.98 326.32 1064.96 326.32C1065.98 326.32 1066.77 326.597 1067.33 327.152C1067.88 327.707 1068.16 328.517 1068.16 329.584V355.376C1068.16 360.24 1066.9 363.909 1064.38 366.384C1061.87 368.859 1058.2 370.096 1053.38 370.096ZM1052.86 352.176C1054.74 352.176 1056.34 351.749 1057.66 350.896C1058.99 350.043 1060.01 348.827 1060.74 347.248C1061.46 345.669 1061.82 343.813 1061.82 341.68C1061.82 338.48 1061.01 335.941 1059.39 334.064C1057.81 332.187 1055.64 331.248 1052.86 331.248C1051.03 331.248 1049.45 331.675 1048.13 332.528C1046.8 333.381 1045.76 334.597 1044.99 336.176C1044.27 337.712 1043.9 339.547 1043.9 341.68C1043.9 344.923 1044.71 347.483 1046.34 349.36C1047.96 351.237 1050.13 352.176 1052.86 352.176ZM1104.15 358.576C1100.83 358.576 1098.31 357.616 1096.6 355.696C1094.94 353.733 1094.11 350.917 1094.11 347.248V315.696C1094.11 314.629 1094.38 313.819 1094.94 313.264C1095.49 312.709 1096.28 312.432 1097.31 312.432C1098.33 312.432 1099.12 312.709 1099.67 313.264C1100.27 313.819 1100.57 314.629 1100.57 315.696V346.864C1100.57 348.997 1101 350.597 1101.85 351.664C1102.75 352.688 1104.03 353.2 1105.69 353.2C1106.07 353.2 1106.42 353.2 1106.71 353.2C1107.01 353.157 1107.31 353.115 1107.61 353.072C1108.12 353.029 1108.49 353.179 1108.7 353.52C1108.91 353.819 1109.02 354.459 1109.02 355.44C1109.02 356.336 1108.83 357.04 1108.44 357.552C1108.06 358.021 1107.44 358.32 1106.59 358.448C1106.2 358.491 1105.8 358.512 1105.37 358.512C1104.94 358.555 1104.54 358.576 1104.15 358.576ZM1123.65 358.576C1121.48 358.576 1119.51 358.149 1117.77 357.296C1116.06 356.443 1114.71 355.291 1113.73 353.84C1112.75 352.389 1112.26 350.747 1112.26 348.912C1112.26 346.608 1112.84 344.795 1113.99 343.472C1115.18 342.107 1117.13 341.147 1119.81 340.592C1122.54 339.995 1126.21 339.696 1130.82 339.696H1133.83V343.664H1130.89C1127.81 343.664 1125.38 343.813 1123.59 344.112C1121.8 344.411 1120.52 344.923 1119.75 345.648C1119.02 346.331 1118.66 347.291 1118.66 348.528C1118.66 350.149 1119.22 351.472 1120.33 352.496C1121.43 353.477 1122.97 353.968 1124.93 353.968C1126.51 353.968 1127.9 353.605 1129.09 352.88C1130.29 352.112 1131.23 351.088 1131.91 349.808C1132.63 348.528 1133 347.056 1133 345.392V338.032C1133 335.6 1132.49 333.851 1131.46 332.784C1130.44 331.717 1128.75 331.184 1126.41 331.184C1125.04 331.184 1123.61 331.355 1122.12 331.696C1120.67 332.037 1119.15 332.613 1117.57 333.424C1116.85 333.765 1116.23 333.872 1115.72 333.744C1115.21 333.616 1114.8 333.339 1114.5 332.912C1114.2 332.443 1114.03 331.952 1113.99 331.44C1113.99 330.885 1114.12 330.352 1114.37 329.84C1114.67 329.328 1115.16 328.944 1115.85 328.688C1117.72 327.792 1119.58 327.152 1121.41 326.768C1123.25 326.384 1124.98 326.192 1126.6 326.192C1129.46 326.192 1131.8 326.64 1133.64 327.536C1135.51 328.432 1136.9 329.797 1137.8 331.632C1138.69 333.467 1139.14 335.835 1139.14 338.736V355.184C1139.14 356.208 1138.89 357.019 1138.37 357.616C1137.86 358.171 1137.11 358.448 1136.13 358.448C1135.19 358.448 1134.45 358.171 1133.89 357.616C1133.34 357.019 1133.06 356.208 1133.06 355.184V351.024H1133.64C1133.3 352.603 1132.66 353.968 1131.72 355.12C1130.82 356.229 1129.69 357.083 1128.33 357.68C1126.96 358.277 1125.4 358.576 1123.65 358.576ZM1151.24 358.448C1150.22 358.448 1149.43 358.171 1148.88 357.616C1148.32 357.019 1148.04 356.208 1148.04 355.184V329.584C1148.04 328.517 1148.32 327.707 1148.88 327.152C1149.43 326.597 1150.2 326.32 1151.18 326.32C1152.2 326.32 1152.97 326.597 1153.48 327.152C1154.04 327.707 1154.32 328.517 1154.32 329.584V334.576L1153.61 333.424C1154.55 331.035 1156.02 329.243 1158.03 328.048C1160.03 326.811 1162.34 326.192 1164.94 326.192C1167.41 326.192 1169.46 326.661 1171.08 327.6C1172.75 328.496 1173.99 329.883 1174.8 331.76C1175.61 333.595 1176.01 335.92 1176.01 338.736V355.184C1176.01 356.208 1175.73 357.019 1175.18 357.616C1174.63 358.171 1173.84 358.448 1172.81 358.448C1171.75 358.448 1170.93 358.171 1170.38 357.616C1169.83 357.019 1169.55 356.208 1169.55 355.184V339.12C1169.55 336.432 1169.01 334.469 1167.95 333.232C1166.92 331.995 1165.3 331.376 1163.08 331.376C1160.48 331.376 1158.39 332.187 1156.81 333.808C1155.28 335.429 1154.51 337.605 1154.51 340.336V355.184C1154.51 357.36 1153.42 358.448 1151.24 358.448ZM1199.06 370.096C1196.76 370.096 1194.52 369.861 1192.34 369.392C1190.21 368.923 1188.27 368.155 1186.52 367.088C1185.88 366.747 1185.45 366.32 1185.24 365.808C1185.03 365.339 1184.96 364.848 1185.05 364.336C1185.18 363.824 1185.41 363.376 1185.75 362.992C1186.09 362.608 1186.5 362.352 1186.97 362.224C1187.48 362.096 1188.01 362.181 1188.57 362.48C1190.44 363.504 1192.22 364.187 1193.88 364.528C1195.59 364.912 1197.16 365.104 1198.62 365.104C1201.6 365.104 1203.84 364.336 1205.34 362.8C1206.83 361.307 1207.58 359.088 1207.58 356.144V349.616H1208.15C1207.51 351.963 1206.17 353.819 1204.12 355.184C1202.07 356.549 1199.7 357.232 1197.02 357.232C1194.2 357.232 1191.75 356.592 1189.66 355.312C1187.56 353.989 1185.94 352.176 1184.79 349.872C1183.64 347.525 1183.06 344.795 1183.06 341.68C1183.06 339.333 1183.38 337.221 1184.02 335.344C1184.71 333.467 1185.64 331.845 1186.84 330.48C1188.08 329.115 1189.55 328.069 1191.26 327.344C1193 326.576 1194.92 326.192 1197.02 326.192C1199.75 326.192 1202.11 326.875 1204.12 328.24C1206.17 329.605 1207.49 331.461 1208.09 333.808L1207.45 334.896V329.584C1207.45 328.517 1207.72 327.707 1208.28 327.152C1208.88 326.597 1209.67 326.32 1210.65 326.32C1211.67 326.32 1212.46 326.597 1213.02 327.152C1213.57 327.707 1213.85 328.517 1213.85 329.584V355.376C1213.85 360.24 1212.59 363.909 1210.07 366.384C1207.55 368.859 1203.88 370.096 1199.06 370.096ZM1198.55 352.176C1200.43 352.176 1202.03 351.749 1203.35 350.896C1204.67 350.043 1205.7 348.827 1206.42 347.248C1207.15 345.669 1207.51 343.813 1207.51 341.68C1207.51 338.48 1206.7 335.941 1205.08 334.064C1203.5 332.187 1201.32 331.248 1198.55 331.248C1196.72 331.248 1195.14 331.675 1193.82 332.528C1192.49 333.381 1191.45 334.597 1190.68 336.176C1189.95 337.712 1189.59 339.547 1189.59 341.68C1189.59 344.923 1190.4 347.483 1192.02 349.36C1193.64 351.237 1195.82 352.176 1198.55 352.176ZM1234.06 358.576C1231.54 358.576 1229.43 358.107 1227.72 357.168C1226.06 356.229 1224.8 354.843 1223.94 353.008C1223.13 351.131 1222.73 348.784 1222.73 345.968V329.584C1222.73 328.475 1223 327.664 1223.56 327.152C1224.11 326.597 1224.9 326.32 1225.93 326.32C1226.95 326.32 1227.74 326.597 1228.3 327.152C1228.89 327.664 1229.19 328.475 1229.19 329.584V346.032C1229.19 348.549 1229.7 350.405 1230.73 351.6C1231.75 352.795 1233.37 353.392 1235.59 353.392C1238.02 353.392 1239.99 352.581 1241.48 350.96C1243.02 349.296 1243.78 347.12 1243.78 344.432V329.584C1243.78 328.475 1244.06 327.664 1244.62 327.152C1245.17 326.597 1245.98 326.32 1247.05 326.32C1248.07 326.32 1248.86 326.597 1249.42 327.152C1249.97 327.664 1250.25 328.475 1250.25 329.584V355.184C1250.25 357.36 1249.2 358.448 1247.11 358.448C1246.13 358.448 1245.36 358.171 1244.81 357.616C1244.25 357.019 1243.98 356.208 1243.98 355.184V349.744L1244.81 351.152C1243.95 353.541 1242.59 355.376 1240.71 356.656C1238.83 357.936 1236.62 358.576 1234.06 358.576ZM1269.34 358.576C1267.16 358.576 1265.2 358.149 1263.45 357.296C1261.75 356.443 1260.4 355.291 1259.42 353.84C1258.44 352.389 1257.95 350.747 1257.95 348.912C1257.95 346.608 1258.52 344.795 1259.68 343.472C1260.87 342.107 1262.81 341.147 1265.5 340.592C1268.23 339.995 1271.9 339.696 1276.51 339.696H1279.52V343.664H1276.57C1273.5 343.664 1271.07 343.813 1269.28 344.112C1267.48 344.411 1266.2 344.923 1265.44 345.648C1264.71 346.331 1264.35 347.291 1264.35 348.528C1264.35 350.149 1264.9 351.472 1266.01 352.496C1267.12 353.477 1268.66 353.968 1270.62 353.968C1272.2 353.968 1273.59 353.605 1274.78 352.88C1275.98 352.112 1276.91 351.088 1277.6 349.808C1278.32 348.528 1278.68 347.056 1278.68 345.392V338.032C1278.68 335.6 1278.17 333.851 1277.15 332.784C1276.12 331.717 1274.44 331.184 1272.09 331.184C1270.73 331.184 1269.3 331.355 1267.8 331.696C1266.35 332.037 1264.84 332.613 1263.26 333.424C1262.54 333.765 1261.92 333.872 1261.4 333.744C1260.89 333.616 1260.49 333.339 1260.19 332.912C1259.89 332.443 1259.72 331.952 1259.68 331.44C1259.68 330.885 1259.8 330.352 1260.06 329.84C1260.36 329.328 1260.85 328.944 1261.53 328.688C1263.41 327.792 1265.27 327.152 1267.1 326.768C1268.94 326.384 1270.66 326.192 1272.28 326.192C1275.14 326.192 1277.49 326.64 1279.32 327.536C1281.2 328.432 1282.59 329.797 1283.48 331.632C1284.38 333.467 1284.83 335.835 1284.83 338.736V355.184C1284.83 356.208 1284.57 357.019 1284.06 357.616C1283.55 358.171 1282.8 358.448 1281.82 358.448C1280.88 358.448 1280.14 358.171 1279.58 357.616C1279.03 357.019 1278.75 356.208 1278.75 355.184V351.024H1279.32C1278.98 352.603 1278.34 353.968 1277.4 355.12C1276.51 356.229 1275.38 357.083 1274.01 357.68C1272.65 358.277 1271.09 358.576 1269.34 358.576ZM1307.88 370.096C1305.57 370.096 1303.33 369.861 1301.16 369.392C1299.02 368.923 1297.08 368.155 1295.33 367.088C1294.69 366.747 1294.26 366.32 1294.05 365.808C1293.84 365.339 1293.77 364.848 1293.86 364.336C1293.99 363.824 1294.22 363.376 1294.56 362.992C1294.9 362.608 1295.31 362.352 1295.78 362.224C1296.29 362.096 1296.82 362.181 1297.38 362.48C1299.26 363.504 1301.03 364.187 1302.69 364.528C1304.4 364.912 1305.98 365.104 1307.43 365.104C1310.41 365.104 1312.65 364.336 1314.15 362.8C1315.64 361.307 1316.39 359.088 1316.39 356.144V349.616H1316.96C1316.32 351.963 1314.98 353.819 1312.93 355.184C1310.88 356.549 1308.52 357.232 1305.83 357.232C1303.01 357.232 1300.56 356.592 1298.47 355.312C1296.38 353.989 1294.76 352.176 1293.6 349.872C1292.45 347.525 1291.88 344.795 1291.88 341.68C1291.88 339.333 1292.2 337.221 1292.84 335.344C1293.52 333.467 1294.46 331.845 1295.65 330.48C1296.89 329.115 1298.36 328.069 1300.07 327.344C1301.82 326.576 1303.74 326.192 1305.83 326.192C1308.56 326.192 1310.93 326.875 1312.93 328.24C1314.98 329.605 1316.3 331.461 1316.9 333.808L1316.26 334.896V329.584C1316.26 328.517 1316.54 327.707 1317.09 327.152C1317.69 326.597 1318.48 326.32 1319.46 326.32C1320.48 326.32 1321.27 326.597 1321.83 327.152C1322.38 327.707 1322.66 328.517 1322.66 329.584V355.376C1322.66 360.24 1321.4 363.909 1318.88 366.384C1316.37 368.859 1312.7 370.096 1307.88 370.096ZM1307.36 352.176C1309.24 352.176 1310.84 351.749 1312.16 350.896C1313.49 350.043 1314.51 348.827 1315.24 347.248C1315.96 345.669 1316.32 343.813 1316.32 341.68C1316.32 338.48 1315.51 335.941 1313.89 334.064C1312.31 332.187 1310.14 331.248 1307.36 331.248C1305.53 331.248 1303.95 331.675 1302.63 332.528C1301.3 333.381 1300.26 334.597 1299.49 336.176C1298.77 337.712 1298.4 339.547 1298.4 341.68C1298.4 344.923 1299.21 347.483 1300.84 349.36C1302.46 351.237 1304.63 352.176 1307.36 352.176ZM1346.39 358.576C1342.97 358.576 1340.03 357.936 1337.56 356.656C1335.12 355.333 1333.22 353.477 1331.86 351.088C1330.54 348.656 1329.88 345.776 1329.88 342.448C1329.88 339.205 1330.54 336.368 1331.86 333.936C1333.18 331.504 1335 329.605 1337.3 328.24C1339.6 326.875 1342.23 326.192 1345.17 326.192C1347.35 326.192 1349.29 326.555 1351 327.28C1352.7 327.963 1354.15 328.987 1355.35 330.352C1356.58 331.675 1357.5 333.296 1358.1 335.216C1358.74 337.136 1359.06 339.291 1359.06 341.68C1359.06 342.405 1358.85 342.96 1358.42 343.344C1357.99 343.685 1357.35 343.856 1356.5 343.856H1335V339.888H1354.71L1353.62 340.784C1353.62 338.651 1353.3 336.837 1352.66 335.344C1352.06 333.851 1351.14 332.72 1349.91 331.952C1348.71 331.141 1347.22 330.736 1345.43 330.736C1343.42 330.736 1341.72 331.205 1340.31 332.144C1338.94 333.083 1337.9 334.384 1337.17 336.048C1336.45 337.712 1336.08 339.653 1336.08 341.872V342.256C1336.08 346.011 1336.96 348.848 1338.71 350.768C1340.5 352.645 1343.08 353.584 1346.45 353.584C1347.73 353.584 1349.08 353.413 1350.48 353.072C1351.93 352.731 1353.3 352.155 1354.58 351.344C1355.3 350.917 1355.94 350.725 1356.5 350.768C1357.1 350.811 1357.57 351.003 1357.91 351.344C1358.29 351.685 1358.53 352.112 1358.61 352.624C1358.7 353.136 1358.61 353.669 1358.36 354.224C1358.1 354.736 1357.65 355.205 1357.01 355.632C1355.56 356.613 1353.88 357.36 1351.96 357.872C1350.04 358.341 1348.18 358.576 1346.39 358.576Z" fill="black"/>
<g clip-path="url(#clip1_2008_225)">
<mask id="path-2-inside-1_2008_225" fill="white">
<path d="M0 0H540V540H0V0Z"/>
</mask>
<rect x="270" y="540" width="480" height="540" transform="rotate(180 270 540)" fill="url(#paint0_linear_2008_225)"/>
<rect x="750" y="540" width="480" height="540" transform="rotate(180 750 540)" fill="url(#paint1_linear_2008_225)"/>
<path d="M327.955 308.303C312.093 338.975 266.881 334.611 257.191 301.473L246.413 264.615C245.888 262.818 243.436 262.581 242.576 264.245L215.171 317.236C220.562 306.811 204.086 252.306 212.045 230.697C227.907 200.026 273.119 204.389 282.809 237.527L293.587 274.385C294.112 276.182 296.564 276.419 297.425 274.755L324.829 221.764C319.438 232.189 335.915 286.694 327.955 308.303Z" fill="url(#paint2_linear_2008_225)"/>
<path d="M362.623 241.267L327.955 308.303C335.915 286.694 319.438 232.189 324.829 221.764C330.22 211.339 343.051 207.254 353.488 212.639C363.925 218.025 368.014 230.842 362.623 241.267Z" fill="url(#paint3_linear_2008_225)"/>
<path d="M177.377 297.733L212.045 230.697C204.086 252.306 220.562 306.811 215.171 317.236C209.78 327.661 196.949 331.746 186.512 326.361C176.075 320.975 171.986 308.158 177.377 297.733Z" fill="url(#paint4_linear_2008_225)"/>
</g>
<path d="M539 0V540H541V0H539Z" fill="#BEBEBE" mask="url(#path-2-inside-1_2008_225)"/>
</g>
<defs>
<linearGradient id="paint0_linear_2008_225" x1="488.87" y1="501.395" x2="597.677" y2="1114.17" gradientUnits="userSpaceOnUse">
<stop stop-color="#3164E6"/>
<stop offset="1" stop-color="#86FFAF"/>
</linearGradient>
<linearGradient id="paint1_linear_2008_225" x1="939.004" y1="597.807" x2="1112.91" y2="1006.53" gradientUnits="userSpaceOnUse">
<stop stop-color="#86FFAF"/>
<stop offset="1" stop-color="#3164E6"/>
</linearGradient>
<linearGradient id="paint2_linear_2008_225" x1="261.636" y1="201.493" x2="275.273" y2="339.44" gradientUnits="userSpaceOnUse">
<stop stop-color="#3164E6"/>
<stop offset="1" stop-color="#86FFAF"/>
</linearGradient>
<linearGradient id="paint3_linear_2008_225" x1="249.814" y1="222.739" x2="273.674" y2="323.463" gradientUnits="userSpaceOnUse">
<stop stop-color="#86FFAF"/>
<stop offset="1" stop-color="#3164E6"/>
</linearGradient>
<linearGradient id="paint4_linear_2008_225" x1="249.814" y1="222.739" x2="273.674" y2="323.463" gradientUnits="userSpaceOnUse">
<stop stop-color="#86FFAF"/>
<stop offset="1" stop-color="#3164E6"/>
</linearGradient>
<clipPath id="clip0_2008_225">
<rect width="1500" height="540" fill="white"/>
</clipPath>
<clipPath id="clip1_2008_225">
<path d="M0 0H540V540H0V0Z" fill="white"/>
</clipPath>
</defs>
</svg>
