<svg width="960" height="1080" viewBox="0 0 960 1080" fill="none" xmlns="http://www.w3.org/2000/svg">
<g clip-path="url(#clip0_9_428)">
<mask id="path-1-inside-1_9_428" fill="white">
<path d="M0 0H960V1080H0V0Z"/>
</mask>
<rect x="480" y="1080" width="480" height="1080" transform="rotate(180 480 1080)" fill="url(#paint0_linear_9_428)"/>
<rect x="960" y="1080" width="480" height="1080" transform="rotate(180 960 1080)" fill="url(#paint1_linear_9_428)"/>
<path d="M537.955 578.303C522.093 608.975 476.881 604.611 467.191 571.473L456.413 534.615C455.888 532.818 453.436 532.581 452.576 534.245L425.171 587.236C430.562 576.811 414.086 522.306 422.045 500.697C437.907 470.026 483.119 474.389 492.809 507.527L503.587 544.385C504.112 546.182 506.564 546.419 507.425 544.755L534.829 491.764C529.438 502.189 545.915 556.694 537.955 578.303Z" fill="url(#paint2_linear_9_428)"/>
<path d="M572.623 511.267L537.955 578.303C545.915 556.694 529.438 502.189 534.829 491.764C540.22 481.339 553.051 477.254 563.488 482.639C573.925 488.025 578.014 500.842 572.623 511.267Z" fill="url(#paint3_linear_9_428)"/>
<path d="M387.377 567.733L422.045 500.697C414.086 522.306 430.562 576.811 425.171 587.236C419.78 597.661 406.949 601.746 396.512 596.361C386.075 590.975 381.986 578.158 387.377 567.733Z" fill="url(#paint4_linear_9_428)"/>
</g>
<path d="M959 0V1080H961V0H959Z" fill="#BEBEBE" mask="url(#path-1-inside-1_9_428)"/>
<defs>
<linearGradient id="paint0_linear_9_428" x1="698.87" y1="1002.79" x2="1097.54" y2="2125.41" gradientUnits="userSpaceOnUse">
<stop stop-color="#3164E6"/>
<stop offset="1" stop-color="#86FFAF"/>
</linearGradient>
<linearGradient id="paint1_linear_9_428" x1="1149" y1="1195.61" x2="1625.5" y2="1755.55" gradientUnits="userSpaceOnUse">
<stop stop-color="#86FFAF"/>
<stop offset="1" stop-color="#3164E6"/>
</linearGradient>
<linearGradient id="paint2_linear_9_428" x1="471.636" y1="471.493" x2="485.273" y2="609.44" gradientUnits="userSpaceOnUse">
<stop stop-color="#3164E6"/>
<stop offset="1" stop-color="#86FFAF"/>
</linearGradient>
<linearGradient id="paint3_linear_9_428" x1="459.814" y1="492.739" x2="483.674" y2="593.463" gradientUnits="userSpaceOnUse">
<stop stop-color="#86FFAF"/>
<stop offset="1" stop-color="#3164E6"/>
</linearGradient>
<linearGradient id="paint4_linear_9_428" x1="459.814" y1="492.739" x2="483.674" y2="593.463" gradientUnits="userSpaceOnUse">
<stop stop-color="#86FFAF"/>
<stop offset="1" stop-color="#3164E6"/>
</linearGradient>
<clipPath id="clip0_9_428">
<path d="M0 0H960V1080H0V0Z" fill="white"/>
</clipPath>
</defs>
</svg>
