<svg width="405" height="405" xmlns="http://www.w3.org/2000/svg" xmlns:svg="http://www.w3.org/2000/svg">
    <g class="layer">
        <title>Layer 1</title>
        <path
            d="m200.44,3.67c0,5.13 2.01,19.33 3.75,26.33c5.34,21.66 15.42,36.79 31.98,47.78c4.61,3.07 18.82,10 20.71,11c1.89,1 13.49,6.66 18.5,10.13c24.57,16.79 41.47,41.46 48.68,70.85c3.61,14.93 3.94,20.79 3.94,70.38c0,46.12 -0.27,53.18 -2.74,66.11c-7.01,37.66 -33.32,70.38 -69.72,86.65c-28.98,12.99 -67.32,14.39 -99.37,3.79c-38.67,-12.86 -69.26,-45.52 -79.27,-84.64c-3.61,-14.13 -3.54,-12.13 -3.81,-67.31c-0.2,-33.93 -0.07,-53.92 0.4,-58.19c3.81,-34.59 20.3,-64.45 46.62,-84.17c7.07,-5.34 14.09,-9.27 24.64,-13.93c14.82,-6.54 22.97,-11.73 30.92,-19.73c13.69,-13.8 21.24,-33.79 23.24,-61.85c0.4,-6.13 1.53,-8.47 1.53,-3.2zm-20.7,109.5c-7.48,1.54 -16.16,4.67 -24.04,8.67c-20.23,10.33 -35.39,27.86 -42.07,48.78c-4.01,12.33 -4.08,13.73 -3.88,73.12c0.14,44.19 0.34,53.65 1.07,52.05c0.47,-1 2.27,-5.07 4.08,-9c1.8,-3.86 12.28,-26.86 23.3,-51.05c11.02,-24.19 23.24,-51.05 27.18,-59.65c7.88,-17.2 28.32,-62.45 28.92,-63.92c0.27,-0.8 -0.53,-0.86 -4.61,-0.46c-2.74,0.26 -7.21,0.93 -9.95,1.46zm42.74,67.05l0,66.85l3.54,-8c2.01,-4.4 10.22,-22.53 18.3,-40.32c22.17,-48.59 25.58,-56.12 25.58,-56.65c0,-0.27 -2.27,-2.67 -5.01,-5.4c-9.08,-8.93 -21.5,-16.33 -35.26,-20.93c-3.74,-1.26 -6.88,-2.33 -7.01,-2.33c-0.07,0 -0.14,30.06 -0.14,66.78zm65.72,12.53c-1.54,3.47 -7.95,17.6 -14.16,31.33c-39.27,86.64 -63.58,140.76 -63.58,141.62c0,0.74 8.82,-0.06 15.03,-1.33c33.12,-6.87 58.5,-31.46 65.18,-63.32c1.13,-5.59 1.27,-9.79 1.27,-60.31c0,-60.19 0.06,-56.72 -0.47,-55.32c-0.2,0.53 -1.67,3.86 -3.27,7.33zm-117.14,64.98c-11.89,26.33 -30.79,68.18 -33.79,74.92l-1.87,4.26l6.08,5.87c10.81,10.46 22.57,16.86 39.4,21.59l1.53,0.4l0,-65.78c0,-36.19 -0.13,-65.65 -0.26,-65.52c-0.14,0.14 -5.15,11.07 -11.09,24.26z"
            fill="#00A8C6" id="svg_1" />
    </g>
</svg>